<?xml version="1.0" encoding="UTF-8" standalone="no"?>
<!DOCTYPE svg PUBLIC "-//W3C//DTD SVG 1.1//EN" "http://www.w3.org/Graphics/SVG/1.1/DTD/svg11.dtd">
<svg xmlns="http://www.w3.org/2000/svg" version="1.1" viewBox="0.00 0.00 500.00 500.00">
<g stroke-width="2.00" fill="none" stroke-linecap="butt">
<path stroke="#363636" vector-effect="non-scaling-stroke" d="
  M 369.63 277.83
  Q 368.95 279.59 369.73 280.69"
/>
<path stroke="#818181" vector-effect="non-scaling-stroke" d="
  M 128.42 245.08
  L 126.27 242.29
  A 1.77 1.77 0.0 0 1 127.62 239.43
  L 143.35 239.01"
/>
<path stroke="#818181" vector-effect="non-scaling-stroke" d="
  M 326.37 272.05
  Q 330.11 278.56 331.79 282.94
  Q 337.83 298.68 330.83 313.87
  Q 329.72 316.29 331.04 313.98
  Q 333.50 309.64 335.69 305.06
  C 342.45 290.88 338.33 273.52 330.30 261.05
  C 327.25 256.31 324.69 251.18 322.74 245.88
  C 321.49 242.51 323.37 239.89 323.28 236.53
  Q 323.03 227.69 318.13 220.22
  C 315.79 216.65 312.46 212.28 312.18 207.88
  Q 311.60 198.51 306.30 187.69
  Q 303.98 182.95 301.61 179.18
  Q 296.34 170.80 287.13 162.87
  Q 280.55 157.21 271.53 153.96
  Q 250.33 146.34 228.40 154.01
  Q 220.12 156.90 213.71 162.23
  Q 198.96 174.51 191.53 192.27
  Q 189.08 198.11 188.30 203.40
  C 187.83 206.61 188.21 210.02 186.48 212.94
  C 181.83 220.81 174.43 230.76 177.33 240.44
  C 179.08 246.28 174.53 254.52 171.38 259.23
  C 164.30 269.82 160.57 280.88 161.38 293.67
  Q 161.82 300.51 164.53 306.47
  Q 167.55 313.13 171.50 318.70
  Q 171.60 318.84 171.74 318.75
  L 171.75 318.74
  Q 171.85 318.68 171.79 318.58
  C 166.77 309.07 164.25 298.24 166.70 287.69
  C 167.83 282.81 171.41 277.63 173.94 272.89
  Q 174.83 271.24 174.67 273.11
  Q 173.91 282.41 175.76 291.23
  Q 177.72 300.53 182.82 308.28
  C 190.77 320.37 203.64 330.17 218.14 331.98
  Q 220.32 332.26 218.36 331.27
  Q 214.55 329.36 210.83 327.68
  Q 210.34 327.46 210.17 326.96
  A 0.24 0.24 0.0 0 1 210.43 326.64
  C 218.92 327.77 228.00 330.22 234.41 335.83
  C 240.44 341.11 246.68 344.01 254.95 342.58
  C 259.34 341.83 263.77 338.45 267.14 335.61
  C 269.93 333.25 273.87 331.76 277.30 330.75
  Q 281.48 329.53 286.00 328.14
  Q 286.06 328.13 286.08 328.19
  L 286.16 328.43
  Q 286.25 328.68 286.00 328.78
  Q 282.90 329.96 279.84 331.99
  Q 279.09 332.49 279.99 332.44
  Q 289.95 331.83 298.68 327.15
  C 301.18 325.81 303.26 324.04 305.63 322.55
  Q 308.17 320.97 310.35 318.84
  Q 329.76 299.81 326.16 272.13
  Q 326.08 271.54 326.37 272.05"
/>
<path stroke="#818181" vector-effect="non-scaling-stroke" d="
  M 132.13 244.18
  Q 132.05 261.84 132.04 277.89
  Q 132.04 281.49 130.50 284.44
  Q 124.82 295.29 117.72 307.35
  Q 117.20 308.22 118.21 308.26
  Q 124.99 308.53 131.86 308.11
  Q 132.45 308.08 132.66 307.53
  Q 136.68 297.08 141.54 287.40
  Q 141.77 286.94 141.52 286.49
  Q 139.38 282.51 139.41 278.90
  Q 139.55 262.07 139.21 244.41
  A 0.68 0.67 88.7 0 0 138.53 243.75
  L 132.55 243.76
  Q 132.13 243.76 132.13 244.18"
/>
<path stroke="#818181" vector-effect="non-scaling-stroke" d="
  M 349.83 298.95
  C 358.51 296.96 367.58 296.76 375.79 299.46
  A 0.33 0.32 -2.9 0 0 376.19 299.02
  Q 372.62 290.85 367.21 281.12
  Q 366.46 279.78 366.45 278.23
  Q 366.28 260.33 366.26 244.38
  Q 366.26 243.75 365.62 243.72
  Q 362.38 243.60 359.50 244.06
  Q 358.84 244.16 358.84 244.83
  L 358.76 278.50
  Q 358.75 279.03 358.47 279.47
  C 357.44 281.11 356.10 282.25 355.09 284.02
  Q 350.54 292.00 346.57 299.53
  Q 346.17 300.28 347.02 300.21
  Q 348.29 300.11 349.30 299.22
  Q 349.53 299.02 349.83 298.95"
/>
<path stroke="#818181" vector-effect="non-scaling-stroke" d="
  M 153.23 270.08
  Q 152.14 271.03 152.61 272.28
  Q 152.78 272.73 153.26 272.74
  L 158.19 272.80
  A 0.74 0.73 6.7 0 0 158.92 272.23
  Q 159.67 269.01 161.73 266.28
  Q 162.11 265.77 161.49 265.63
  Q 159.09 265.08 157.23 266.00"
/>
<path stroke="#818181" vector-effect="non-scaling-stroke" d="
  M 344.51 265.74
  L 339.45 265.47
  Q 338.21 265.41 338.82 266.49
  Q 340.25 269.06 340.87 271.79
  Q 341.10 272.78 342.12 272.76
  L 345.14 272.69
  Q 345.37 272.68 345.43 272.47
  Q 345.47 272.33 345.49 272.21"
/>
<path stroke="#818181" vector-effect="non-scaling-stroke" d="
  M 151.75 274.90
  Q 148.56 275.71 146.58 281.57"
/>
<path stroke="#565656" vector-effect="non-scaling-stroke" d="
  M 146.58 281.57
  Q 145.70 281.90 145.09 283.60
  Q 144.66 284.78 145.86 285.15
  Q 148.66 286.01 151.60 285.94"
/>
<path stroke="#252525" vector-effect="non-scaling-stroke" d="
  M 151.60 285.94
  L 155.90 286.03
  Q 156.44 286.04 156.52 285.50
  L 157.85 275.63"
/>
<path stroke="#565656" vector-effect="non-scaling-stroke" d="
  M 157.85 275.63
  Q 155.83 274.20 151.75 274.90"
/>
<path stroke="#696969" vector-effect="non-scaling-stroke" d="
  M 157.85 275.63
  Q 155.52 277.01 155.37 278.50
  C 155.20 280.26 154.86 281.26 153.49 282.62
  Q 152.08 284.02 151.60 285.94"
/>
<path stroke="#c5c5c5" vector-effect="non-scaling-stroke" d="
  M 146.58 281.57
  L 151.75 274.90"
/>
<path stroke="#818181" vector-effect="non-scaling-stroke" d="
  M 347.78 277.98
  Q 346.72 275.04 344.78 275.29"
/>
<path stroke="#565656" vector-effect="non-scaling-stroke" d="
  M 344.78 275.29
  L 342.45 275.11
  Q 341.86 275.06 341.93 275.64
  L 342.58 281.33
  A 0.73 0.72 85.3 0 0 343.33 281.97
  L 349.28 281.73
  A 0.33 0.32 -15.2 0 0 349.56 281.25
  L 347.78 277.98"
/>
<path stroke="#c5c5c5" vector-effect="non-scaling-stroke" d="
  M 344.78 275.29
  L 344.19 277.60
  Q 344.06 278.10 344.58 278.09
  L 347.78 277.98"
/>
<path stroke="#363636" vector-effect="non-scaling-stroke" d="
  M 343.27 296.05
  Q 342.88 297.59 342.87 297.87
  Q 342.77 300.84 344.49 298.41
  Q 345.11 297.53 345.21 295.98"
/>
<path stroke="#565656" vector-effect="non-scaling-stroke" d="
  M 345.21 295.98
  C 346.84 294.14 347.55 292.01 348.85 290.07
  C 349.93 288.45 352.19 285.76 350.34 284.04
  Q 349.93 283.66 349.37 283.67
  L 343.75 283.80
  Q 343.15 283.81 343.16 284.41
  L 343.27 296.05"
/>
<path stroke="#7a7a7a" vector-effect="non-scaling-stroke" d="
  M 345.21 295.98
  Q 344.32 295.81 343.27 296.05"
/>
<path stroke="#252525" vector-effect="non-scaling-stroke" d="
  M 150.54 297.54
  Q 151.15 299.73 152.21 301.70
  Q 153.28 303.71 154.23 305.66
  Q 155.03 307.29 155.98 308.89
  Q 156.88 310.42 156.81 312.19
  C 156.68 315.23 155.61 319.57 153.10 321.60
  Q 151.67 322.76 150.79 324.41
  C 149.70 326.43 145.70 327.64 143.97 327.62
  Q 134.94 327.53 126.00 327.81
  Q 125.91 327.81 125.84 327.88
  Q 125.73 327.98 125.65 328.11
  A 0.35 0.34 -69.6 0 0 125.88 328.62
  Q 128.14 329.06 131.01 329.10
  Q 152.46 329.42 171.95 329.27
  A 0.96 0.96 0.0 0 0 172.64 327.65
  Q 166.10 320.69 162.60 312.97
  Q 162.05 311.75 161.37 310.57
  Q 160.69 309.40 160.40 307.97
  C 159.78 304.93 157.96 302.28 157.55 299.33
  Q 156.81 294.04 156.72 288.70
  Q 156.71 287.83 155.84 287.74
  L 151.29 287.24"
/>
<path stroke="#363636" vector-effect="non-scaling-stroke" d="
  M 151.29 287.24
  Q 150.01 286.74 148.55 286.96
  Q 148.04 287.04 147.99 287.55
  Q 147.38 293.09 150.54 297.54"
/>
<path stroke="#494949" vector-effect="non-scaling-stroke" d="
  M 151.29 287.24
  Q 152.41 292.62 152.08 296.25
  Q 151.92 298.01 150.54 297.54"
/>
<path stroke="#363636" vector-effect="non-scaling-stroke" d="
  M 138.70 297.44
  L 134.86 306.71
  Q 134.53 307.52 135.40 307.55
  L 143.68 307.85"
/>
<path stroke="#565656" vector-effect="non-scaling-stroke" d="
  M 143.68 307.85
  L 147.26 307.80"
/>
<path stroke="#363636" vector-effect="non-scaling-stroke" d="
  M 147.26 307.80
  L 150.82 307.73
  Q 152.50 307.70 151.64 306.26
  Q 149.65 302.91 147.85 299.82
  C 146.10 296.84 144.93 293.29 143.34 290.05"
/>
<path stroke="#565656" vector-effect="non-scaling-stroke" d="
  M 143.34 290.05
  Q 143.12 289.34 142.89 289.09
  Q 142.62 288.78 142.29 289.39
  Q 140.11 293.33 138.70 297.44"
/>
<path stroke="#7a7a7a" vector-effect="non-scaling-stroke" d="
  M 143.34 290.05
  Q 141.91 292.72 142.54 295.25
  Q 144.01 301.13 147.26 307.80"
/>
<path stroke="#7a7a7a" vector-effect="non-scaling-stroke" d="
  M 143.68 307.85
  Q 139.67 303.50 138.70 297.44"
/>
<path stroke="#818181" vector-effect="non-scaling-stroke" d="
  M 337.82 312.94
  L 336.27 315.74
  Q 335.91 316.39 336.65 316.37
  L 340.83 316.26
  Q 341.43 316.24 341.30 315.66
  L 340.73 312.94"
/>
<path stroke="#565656" vector-effect="non-scaling-stroke" d="
  M 340.73 312.94
  Q 341.23 307.13 343.17 301.65
  Q 343.20 301.56 343.11 301.53
  L 342.86 301.43
  Q 342.53 301.31 342.40 301.64
  L 337.82 312.94"
/>
<path stroke="#c5c5c5" vector-effect="non-scaling-stroke" d="
  M 340.73 312.94
  Q 339.53 313.82 337.82 312.94"
/>
<path stroke="#818181" vector-effect="non-scaling-stroke" d="
  M 379.17 304.75
  Q 378.59 303.28 377.83 302.05
  Q 377.45 301.44 376.78 301.70
  Q 375.15 302.31 373.54 302.44
  Q 360.30 303.51 348.92 302.58
  Q 347.86 302.50 346.87 302.08
  A 1.23 1.23 0.0 0 0 345.26 302.73
  Q 342.72 308.63 343.65 315.76
  C 344.47 321.97 349.80 325.77 356.00 325.92
  Q 366.06 326.16 373.59 325.14
  Q 376.44 324.75 378.36 322.19
  C 382.32 316.89 381.47 310.63 379.17 304.75"
/>
<path stroke="#363636" vector-effect="non-scaling-stroke" d="
  M 130.05 325.53
  L 137.52 325.54"
/>
<path stroke="#818181" vector-effect="non-scaling-stroke" d="
  M 137.52 325.54
  Q 144.83 326.23 149.48 322.10"
/>
<path stroke="#363636" vector-effect="non-scaling-stroke" d="
  M 149.48 322.10
  Q 153.00 319.51 153.87 314.97
  Q 154.39 312.21 152.47 310.26
  Q 152.12 309.90 151.62 309.89
  L 147.19 309.82"
/>
<path stroke="#818181" vector-effect="non-scaling-stroke" d="
  M 147.19 309.82
  L 144.14 309.72"
/>
<path stroke="#363636" vector-effect="non-scaling-stroke" d="
  M 144.14 309.72
  L 131.62 309.50"
/>
<path stroke="#565656" vector-effect="non-scaling-stroke" d="
  M 131.62 309.50
  Q 129.93 309.79 129.64 310.55"
/>
<path stroke="#363636" vector-effect="non-scaling-stroke" d="
  M 129.64 310.55
  L 128.54 311.16"
/>
<path stroke="#818181" vector-effect="non-scaling-stroke" d="
  M 128.54 311.16
  Q 125.82 311.69 123.73 310.99
  Q 119.52 309.60 117.67 309.12
  Q 117.07 308.97 116.78 309.51
  Q 113.81 315.10 116.49 320.16
  C 117.51 322.08 120.54 324.61 122.48 325.22
  Q 124.82 325.95 130.05 325.53"
/>
<path stroke="#a5a5a5" vector-effect="non-scaling-stroke" d="
  M 128.54 311.16
  Q 129.88 311.15 130.76 312.24
  A 0.94 0.94 0.0 0 1 130.66 313.53
  L 129.53 314.53
  Q 129.12 314.90 129.47 315.33
  Q 130.74 316.88 131.07 319.14
  A 0.59 0.58 -86.2 0 1 130.33 319.79
  Q 126.16 318.61 122.63 316.87
  Q 120.64 315.89 120.73 318.10
  Q 120.77 318.92 120.93 319.66
  Q 121.44 321.98 123.63 322.88
  L 130.05 325.53"
/>
<path stroke="#a5a5a5" vector-effect="non-scaling-stroke" d="
  M 144.14 309.72
  Q 145.50 312.47 146.65 315.16
  Q 147.59 317.40 147.17 318.98
  Q 146.55 321.24 144.38 322.15
  Q 140.97 323.58 137.52 325.54"
/>
<path stroke="#7a7a7a" vector-effect="non-scaling-stroke" d="
  M 129.64 310.55
  Q 132.96 310.95 131.62 309.50"
/>
<path stroke="#a5a5a5" vector-effect="non-scaling-stroke" d="
  M 147.19 309.82
  Q 149.73 314.36 150.18 317.25
  Q 150.38 318.55 149.48 322.10"
/>
<path stroke="#818181" vector-effect="non-scaling-stroke" d="
  M 328.63 326.64
  C 333.99 327.18 344.40 326.90 342.18 318.60
  A 1.01 1.00 -8.0 0 0 341.18 317.85
  L 335.26 317.97
  Q 334.67 317.98 334.36 318.47
  Q 331.74 322.70 328.46 326.17
  Q 328.07 326.58 328.63 326.64"
/>
<path stroke="#818181" vector-effect="non-scaling-stroke" d="
  M 343.85 322.85
  L 343.13 324.91
  Q 342.94 325.46 343.52 325.48
  L 346.33 325.60
  Q 347.11 325.63 346.56 325.08
  L 344.20 322.77
  Q 343.96 322.53 343.85 322.85"
/>
<path stroke="#565656" vector-effect="non-scaling-stroke" d="
  M 388.38 324.68
  C 386.40 323.89 384.24 323.29 382.25 322.80
  A 1.82 1.80 -60.5 0 0 380.52 323.29
  L 379.28 324.54
  Q 378.69 325.14 379.53 325.18
  Q 383.68 325.37 388.30 325.14
  Q 389.42 325.09 388.38 324.68"
/>
<path stroke="#363636" vector-effect="non-scaling-stroke" d="
  M 361.92 329.24
  Q 369.31 329.25 374.87 328.96
  Q 375.12 328.95 375.12 328.71
  L 375.12 328.28
  A 0.32 0.31 89.1 0 0 374.80 327.96
  Q 362.00 328.06 349.33 327.59
  C 344.22 327.39 338.97 328.09 333.85 328.67
  Q 333.67 328.69 333.61 328.86
  Q 333.55 329.04 333.71 329.20
  Q 333.93 329.43 334.24 329.39
  Q 335.74 329.19 337.41 329.19
  Q 348.22 329.22 361.92 329.24"
/>
<path stroke="#818181" vector-effect="non-scaling-stroke" d="
  M 205.18 202.81
  Q 198.57 207.68 195.46 216.74
  Q 194.49 219.55 195.47 222.18
  Q 197.48 227.59 201.41 230.47
  Q 208.41 235.61 216.23 234.89
  C 220.73 234.47 223.43 231.43 226.77 228.84
  C 230.56 225.92 234.19 226.56 238.27 228.05
  C 243.39 229.91 247.98 226.68 249.43 221.81
  Q 250.66 217.68 250.89 213.80
  Q 250.90 213.63 250.84 213.79
  C 249.94 216.49 248.93 220.18 247.09 222.14
  Q 242.21 227.36 235.14 223.02
  Q 229.85 219.77 227.60 217.57
  Q 222.15 212.22 216.88 206.45
  Q 214.89 204.26 209.75 200.14
  Q 207.36 198.22 205.01 198.04
  C 199.58 197.61 197.28 202.21 195.52 206.41
  Q 194.98 207.69 195.91 206.66
  C 197.24 205.19 197.84 203.28 199.49 202.11
  Q 202.08 200.26 205.14 202.06
  Q 205.74 202.40 205.18 202.81"
/>
<path stroke="#818181" vector-effect="non-scaling-stroke" d="
  M 296.22 203.15
  Q 295.06 202.53 296.26 202.01
  Q 302.60 199.24 304.75 206.18
  Q 304.77 206.24 304.83 206.22
  L 305.12 206.12
  A 0.30 0.30 0.0 0 0 305.31 205.75
  C 304.40 202.72 302.22 198.75 298.81 198.16
  C 294.09 197.34 285.40 205.96 282.46 209.43
  C 278.41 214.22 274.21 218.43 268.92 222.04
  C 262.98 226.09 255.02 226.24 253.77 217.42
  Q 253.51 215.59 253.32 217.43
  C 252.71 223.40 256.74 230.36 263.74 228.10
  Q 265.19 227.64 266.67 227.15
  C 274.43 224.57 278.08 234.86 285.37 235.13
  Q 299.53 235.65 306.10 223.16
  C 307.33 220.81 306.22 216.20 305.03 213.95
  C 302.75 209.66 300.75 205.53 296.22 203.15"
/>
<path stroke="#818181" vector-effect="non-scaling-stroke" d="
  M 303.83 314.02
  Q 298.71 320.79 292.14 323.03
  Q 289.76 323.85 292.26 323.58
  C 296.37 323.15 300.32 321.33 303.49 318.53
  C 314.27 308.96 321.79 296.73 322.13 281.70
  Q 322.30 273.97 320.90 267.63
  Q 319.74 262.36 319.56 258.01
  Q 319.45 255.25 319.04 252.94
  Q 318.55 250.21 318.40 247.49
  Q 318.01 240.66 316.82 234.07
  Q 316.47 232.16 315.86 234.00
  C 313.54 241.03 305.75 246.88 299.27 248.98
  A 2.63 2.63 0.0 0 0 297.45 251.52
  L 297.51 255.98
  Q 297.54 257.91 296.31 259.39
  L 294.84 261.14
  Q 293.67 262.54 293.47 260.73
  Q 293.10 257.48 291.71 253.94
  A 0.05 0.05 0.0 0 0 291.63 253.93
  Q 290.24 255.83 289.08 258.08
  A 0.59 0.56 -43.8 0 0 289.06 258.56
  Q 293.56 269.18 286.97 277.77
  Q 285.99 279.06 285.91 277.44
  C 285.68 272.58 285.24 267.98 282.33 264.00
  Q 282.01 263.57 281.53 263.80
  Q 250.79 278.21 220.13 263.72
  Q 219.76 263.55 219.38 263.57
  Q 218.82 263.61 219.02 264.26
  A 0.99 0.98 -38.0 0 1 218.92 265.04
  Q 215.44 270.82 215.52 278.00
  A 0.37 0.37 0.0 0 1 214.94 278.30
  Q 213.39 277.16 212.55 275.49
  Q 208.13 266.77 212.37 258.53
  Q 212.66 257.97 212.27 257.47
  L 209.89 254.42
  A 0.34 0.34 0.0 0 0 209.29 254.55
  L 207.60 261.75
  A 0.26 0.26 0.0 0 1 207.20 261.91
  C 204.69 260.17 203.08 257.41 203.22 254.32
  Q 203.31 252.51 203.15 250.69
  A 1.95 1.94 -82.7 0 0 201.87 249.03
  Q 191.20 245.21 184.87 234.84
  Q 184.45 234.16 184.28 234.94
  Q 182.13 245.05 182.28 256.31
  Q 182.34 260.25 181.68 263.97
  C 179.36 277.02 180.03 291.61 187.34 302.80
  Q 191.92 309.81 197.74 315.49
  Q 205.38 322.95 215.19 319.69
  C 218.88 318.46 222.01 315.94 225.44 314.11
  Q 226.71 313.43 228.07 313.53
  A 1.08 1.05 -17.0 0 1 228.79 313.90
  Q 235.75 322.01 245.41 322.68
  Q 248.97 322.93 252.84 322.86
  C 260.34 322.73 266.68 320.13 271.85 314.61
  A 3.01 3.00 -55.4 0 1 275.36 313.96
  C 279.07 315.76 281.98 318.48 285.95 319.74
  Q 294.52 322.47 301.12 316.52
  Q 302.42 315.35 303.74 313.94
  Q 304.54 313.09 303.83 314.02"
/>
<path stroke="#818181" vector-effect="non-scaling-stroke" d="
  M 251.01 241.90
  C 247.22 237.32 240.18 235.71 234.77 239.17
  C 231.37 241.34 231.64 246.10 235.35 247.79
  Q 237.89 248.94 240.87 249.48
  Q 241.45 249.58 241.57 250.16
  C 242.52 254.69 245.75 256.71 249.15 259.27
  Q 250.71 260.44 251.12 262.10
  Q 251.57 263.94 252.19 262.15
  C 253.93 257.07 260.03 256.27 260.80 250.63
  A 1.40 1.38 86.9 0 1 261.83 249.47
  Q 264.27 248.84 266.75 248.06
  C 270.60 246.84 272.82 242.44 269.02 239.50
  Q 263.76 235.44 256.80 238.08
  Q 253.29 239.41 251.61 241.88
  Q 251.33 242.29 251.01 241.90"
/>
<path stroke="#818181" vector-effect="non-scaling-stroke" d="
  M 217.14 213.89
  L 217.62 212.96
  A 1.69 1.69 0.0 0 0 216.73 210.60
  C 212.82 209.08 210.23 212.84 210.57 216.23
  C 211.08 221.36 218.28 224.27 221.87 220.35
  Q 223.37 218.70 221.37 217.72
  L 217.82 215.96
  A 1.53 1.53 0.0 0 1 217.14 213.89"
/>
<path stroke="#818181" vector-effect="non-scaling-stroke" d="
  M 209.26 228.09
  C 206.98 227.25 204.56 224.94 202.84 223.26
  Q 202.43 222.85 202.74 223.34
  Q 205.28 227.31 209.19 228.32
  Q 211.47 228.91 209.26 228.09"
/>
<path stroke="#818181" vector-effect="non-scaling-stroke" d="
  M 283.84 215.64
  Q 281.31 216.69 279.14 218.49
  Q 278.73 218.83 279.01 219.29
  C 283.27 226.18 293.67 219.67 290.18 212.71
  Q 288.18 208.72 284.38 211.57
  Q 283.28 212.40 284.00 213.57
  Q 284.41 214.22 284.33 214.98
  Q 284.28 215.46 283.84 215.64"
/>
<path stroke="#818181" vector-effect="non-scaling-stroke" d="
  M 292.30 228.49
  Q 296.50 226.90 299.20 223.10
  Q 299.25 223.03 299.21 222.95
  Q 299.12 222.75 298.98 222.92
  Q 296.26 226.29 292.23 228.21
  Q 292.08 228.28 292.15 228.42
  L 292.15 228.43
  Q 292.20 228.53 292.30 228.49"
/>
<path stroke="#818181" vector-effect="non-scaling-stroke" d="
  M 273.35 278.21
  A 0.79 0.79 0.0 0 0 274.79 278.25
  L 276.76 274.24
  A 0.79 0.79 0.0 0 0 276.84 273.92
  L 277.08 268.11
  A 0.79 0.79 0.0 0 0 276.00 267.34
  L 270.50 269.48
  A 0.79 0.79 0.0 0 0 270.06 270.53
  L 273.35 278.21"
/>
<path stroke="#818181" vector-effect="non-scaling-stroke" d="
  M 224.56 274.74
  A 0.81 0.81 0.0 0 0 224.68 275.13
  L 226.79 278.46
  A 0.81 0.81 0.0 0 0 228.21 278.37
  L 231.88 270.49
  A 0.81 0.81 0.0 0 0 231.39 269.38
  L 225.28 267.43
  A 0.81 0.81 0.0 0 0 224.23 268.24
  L 224.56 274.74"
/>
<path stroke="#818181" vector-effect="non-scaling-stroke" d="
  M 262.76 285.37
  C 266.40 281.16 268.23 276.52 268.15 270.78
  Q 268.15 270.46 267.83 270.53
  L 261.01 272.06
  Q 260.76 272.11 260.85 272.35
  Q 263.13 278.59 262.15 285.09
  Q 261.98 286.27 262.76 285.37"
/>
<path stroke="#818181" vector-effect="non-scaling-stroke" d="
  M 234.27 271.34
  C 233.74 276.67 235.18 281.40 238.96 285.21
  Q 239.56 285.82 239.49 284.96
  C 239.22 281.39 239.04 275.55 241.22 272.84
  Q 241.66 272.29 240.97 272.15
  L 234.84 270.92
  Q 234.32 270.81 234.27 271.34"
/>
<path stroke="#818181" vector-effect="non-scaling-stroke" d="
  M 250.76 300.46
  C 250.16 295.95 249.57 290.58 243.07 292.21
  C 236.56 293.84 235.40 300.64 239.22 305.49
  C 241.02 307.77 243.42 308.45 244.00 311.72
  Q 244.13 312.42 244.83 312.33
  C 247.31 311.99 249.65 311.40 252.19 311.68
  Q 254.50 311.93 256.76 312.46
  Q 257.28 312.58 257.40 312.07
  Q 258.11 309.08 260.60 306.17
  Q 263.56 302.71 263.69 298.75
  C 263.81 294.60 259.46 291.40 255.50 291.91
  C 254.25 292.07 253.20 292.79 252.80 294.01
  Q 251.73 297.23 251.12 300.47
  Q 250.91 301.58 250.76 300.46"
/>
<path stroke="#818181" vector-effect="non-scaling-stroke" d="
  M 239.24 308.22
  C 235.34 307.85 232.75 304.52 230.58 301.55
  C 229.19 299.65 228.66 297.47 227.64 295.40
  Q 227.26 294.61 227.15 295.48
  C 226.20 303.59 228.18 310.95 235.90 315.13
  Q 250.16 322.86 265.26 315.28
  C 272.65 311.57 274.43 303.93 273.70 296.24
  Q 273.50 294.17 272.85 296.15
  Q 270.70 302.61 265.29 307.23
  Q 263.86 308.44 262.01 308.24
  Q 261.42 308.17 261.53 308.76
  C 261.86 310.49 262.49 314.52 260.08 315.08
  Q 259.29 315.27 257.43 314.76
  Q 254.06 313.85 250.58 313.71
  C 247.32 313.57 244.41 314.68 241.25 315.24
  A 1.53 1.53 0.0 0 1 239.45 313.72
  L 239.49 308.50
  A 0.28 0.27 4.5 0 0 239.24 308.22"
/>
<path stroke="#949494" vector-effect="non-scaling-stroke" d="
  M 350.34 297.98
  L 350.55 298.11
  Q 350.61 298.15 350.64 298.09
  Q 352.80 294.76 354.30 291.09
  Q 354.37 290.94 354.22 290.87
  L 353.95 290.75
  Q 353.89 290.72 353.87 290.78
  Q 352.27 294.32 350.25 297.60
  A 0.28 0.27 32.5 0 0 350.34 297.98"
/>
<path stroke="#696969" vector-effect="non-scaling-stroke" d="
  M 159.25 316.39
  Q 159.08 316.46 159.13 316.64
  Q 159.67 318.69 161.38 320.17
  Q 161.43 320.21 161.47 320.17
  L 161.79 319.87
  Q 162.12 319.56 161.76 319.29
  Q 160.27 318.16 159.49 316.47
  Q 159.42 316.32 159.26 316.39
  L 159.25 316.39"
/>
</g>
<path fill="#121212" d="
  M 369.63 277.83
  Q 368.95 279.59 369.73 280.69
  Q 374.90 290.54 381.29 303.97
  Q 384.74 311.24 383.05 318.51
  Q 382.94 319.00 383.44 319.12
  Q 390.37 320.69 397.42 322.91
  Q 400.94 324.02 403.42 326.58
  A 1.11 1.10 -40.9 0 1 403.30 328.23
  Q 401.62 329.52 399.56 330.07
  C 392.53 331.91 385.91 333.18 378.42 333.13
  Q 363.23 333.02 348.25 333.39
  Q 337.72 333.65 328.25 333.68
  Q 318.01 333.72 307.78 334.16
  C 297.19 334.62 287.09 334.50 276.65 334.55
  A 2.75 2.74 25.1 0 0 274.90 335.18
  Q 271.21 338.21 267.58 340.98
  C 265.34 342.68 262.85 343.67 260.30 344.79
  Q 253.45 347.80 244.84 346.44
  C 242.08 346.01 240.25 344.37 237.76 343.32
  Q 236.30 342.71 235.00 341.78
  Q 230.46 338.52 226.19 335.04
  Q 225.76 334.69 225.21 334.69
  C 211.49 334.72 197.57 335.39 184.00 335.27
  Q 149.12 334.95 114.31 334.62
  Q 109.72 334.58 104.96 334.88
  A 0.76 0.75 1.9 0 1 104.16 334.03
  L 104.47 331.49
  A 0.69 0.69 0.0 0 0 103.81 330.72
  Q 100.11 330.56 97.33 328.66
  A 1.44 1.44 0.0 0 1 96.98 326.61
  Q 98.72 324.26 101.79 323.05
  Q 107.49 320.79 113.24 319.23
  Q 113.88 319.05 113.69 318.41
  C 112.21 313.60 114.42 307.11 117.01 303.13
  C 120.53 297.72 123.46 291.80 126.61 286.13
  C 127.84 283.93 128.48 282.20 128.49 279.51
  Q 128.54 262.72 128.42 245.08
  L 126.27 242.29
  A 1.77 1.77 0.0 0 1 127.62 239.43
  L 143.35 239.01
  Q 145.46 239.78 145.28 241.52
  A 1.46 1.45 -19.8 0 1 144.86 242.41
  L 143.36 243.93
  Q 142.97 244.33 142.96 244.89
  L 142.95 280.79
  Q 142.95 283.91 144.23 281.07
  Q 146.34 276.37 149.82 272.75
  A 1.49 1.49 0.0 0 0 150.23 271.75
  L 150.27 267.03
  Q 150.27 266.33 149.60 266.17
  C 147.95 265.78 146.76 264.61 147.30 262.83
  A 1.50 1.50 0.0 0 1 148.78 261.78
  L 155.78 262.00
  A 0.44 0.44 0.0 0 0 156.23 261.56
  Q 156.20 223.33 156.23 193.17
  Q 156.23 191.85 157.28 191.11
  Q 157.49 190.95 157.75 190.94
  A 0.93 0.92 82.5 0 1 158.71 191.68
  Q 159.08 193.57 159.07 196.41
  Q 158.97 228.84 158.95 261.26
  Q 158.95 261.99 159.68 262.00
  L 163.27 262.06
  Q 163.80 262.07 164.11 261.64
  Q 170.11 253.24 173.09 243.62
  Q 173.34 242.81 172.92 242.08
  C 170.35 237.63 171.65 231.65 173.62 226.85
  Q 176.72 219.31 181.15 212.34
  Q 182.35 210.45 182.61 208.23
  C 183.12 203.99 183.67 199.71 184.98 195.70
  C 187.09 189.22 190.24 182.04 194.50 176.55
  Q 195.85 174.80 196.98 172.85
  C 199.56 168.41 203.54 164.63 207.49 161.01
  Q 210.22 158.51 213.00 156.84
  C 217.64 154.06 220.21 151.98 224.26 150.32
  Q 252.09 138.87 278.53 151.78
  C 281.02 153.00 283.08 154.77 285.54 156.04
  C 290.99 158.86 296.70 164.42 300.21 168.96
  Q 303.20 172.84 306.83 178.43
  C 312.54 187.23 316.66 197.27 317.40 207.57
  Q 317.56 209.80 318.78 211.70
  Q 322.89 218.14 326.07 225.73
  C 328.14 230.69 329.83 237.31 327.17 242.21
  Q 326.89 242.71 327.05 243.27
  C 328.77 249.39 332.72 255.88 336.16 261.50
  A 1.16 1.16 0.0 0 0 337.22 262.06
  L 342.27 261.79
  Q 343.03 261.75 343.03 260.98
  L 342.82 239.77
  Q 342.82 239.42 342.47 239.41
  L 342.02 239.39
  Q 341.38 239.36 341.38 240.00
  Q 341.40 244.71 341.15 249.56
  Q 341.15 249.68 341.03 249.68
  L 341.02 249.68
  Q 340.84 249.68 340.85 249.50
  Q 340.98 246.24 340.87 243.06
  Q 340.85 242.45 340.45 241.99
  C 339.02 240.37 340.07 237.81 342.19 237.83
  A 2.37 2.37 0.0 0 1 344.43 240.92
  Q 344.03 242.18 344.02 243.50
  Q 343.94 251.98 344.03 261.41
  A 0.43 0.43 0.0 0 0 344.47 261.84
  L 350.60 261.77
  A 1.36 1.36 0.0 0 1 351.96 263.31
  Q 351.59 265.94 348.97 266.06
  A 0.78 0.78 0.0 0 0 348.22 266.80
  Q 348.05 269.25 348.05 271.72
  C 348.04 273.57 349.29 274.76 350.29 276.14
  Q 352.19 278.73 353.06 281.65
  A 0.61 0.61 0.0 0 0 354.15 281.82
  Q 355.37 280.01 355.40 277.65
  Q 355.60 260.61 355.32 245.26
  Q 355.31 244.72 354.94 244.33
  L 353.50 242.82
  A 1.92 1.92 0.0 0 1 353.89 239.86
  Q 354.51 239.48 355.21 239.49
  Q 362.50 239.62 370.48 239.48
  A 1.41 1.40 75.1 0 1 371.75 240.22
  C 372.61 241.83 371.09 243.19 370.07 244.25
  Q 369.68 244.67 369.67 245.24
  L 369.63 277.83
  Z
  M 326.37 272.05
  Q 330.11 278.56 331.79 282.94
  Q 337.83 298.68 330.83 313.87
  Q 329.72 316.29 331.04 313.98
  Q 333.50 309.64 335.69 305.06
  C 342.45 290.88 338.33 273.52 330.30 261.05
  C 327.25 256.31 324.69 251.18 322.74 245.88
  C 321.49 242.51 323.37 239.89 323.28 236.53
  Q 323.03 227.69 318.13 220.22
  C 315.79 216.65 312.46 212.28 312.18 207.88
  Q 311.60 198.51 306.30 187.69
  Q 303.98 182.95 301.61 179.18
  Q 296.34 170.80 287.13 162.87
  Q 280.55 157.21 271.53 153.96
  Q 250.33 146.34 228.40 154.01
  Q 220.12 156.90 213.71 162.23
  Q 198.96 174.51 191.53 192.27
  Q 189.08 198.11 188.30 203.40
  C 187.83 206.61 188.21 210.02 186.48 212.94
  C 181.83 220.81 174.43 230.76 177.33 240.44
  C 179.08 246.28 174.53 254.52 171.38 259.23
  C 164.30 269.82 160.57 280.88 161.38 293.67
  Q 161.82 300.51 164.53 306.47
  Q 167.55 313.13 171.50 318.70
  Q 171.60 318.84 171.74 318.75
  L 171.75 318.74
  Q 171.85 318.68 171.79 318.58
  C 166.77 309.07 164.25 298.24 166.70 287.69
  C 167.83 282.81 171.41 277.63 173.94 272.89
  Q 174.83 271.24 174.67 273.11
  Q 173.91 282.41 175.76 291.23
  Q 177.72 300.53 182.82 308.28
  C 190.77 320.37 203.64 330.17 218.14 331.98
  Q 220.32 332.26 218.36 331.27
  Q 214.55 329.36 210.83 327.68
  Q 210.34 327.46 210.17 326.96
  A 0.24 0.24 0.0 0 1 210.43 326.64
  C 218.92 327.77 228.00 330.22 234.41 335.83
  C 240.44 341.11 246.68 344.01 254.95 342.58
  C 259.34 341.83 263.77 338.45 267.14 335.61
  C 269.93 333.25 273.87 331.76 277.30 330.75
  Q 281.48 329.53 286.00 328.14
  Q 286.06 328.13 286.08 328.19
  L 286.16 328.43
  Q 286.25 328.68 286.00 328.78
  Q 282.90 329.96 279.84 331.99
  Q 279.09 332.49 279.99 332.44
  Q 289.95 331.83 298.68 327.15
  C 301.18 325.81 303.26 324.04 305.63 322.55
  Q 308.17 320.97 310.35 318.84
  Q 329.76 299.81 326.16 272.13
  Q 326.08 271.54 326.37 272.05
  Z
  M 132.13 244.18
  Q 132.05 261.84 132.04 277.89
  Q 132.04 281.49 130.50 284.44
  Q 124.82 295.29 117.72 307.35
  Q 117.20 308.22 118.21 308.26
  Q 124.99 308.53 131.86 308.11
  Q 132.45 308.08 132.66 307.53
  Q 136.68 297.08 141.54 287.40
  Q 141.77 286.94 141.52 286.49
  Q 139.38 282.51 139.41 278.90
  Q 139.55 262.07 139.21 244.41
  A 0.68 0.67 88.7 0 0 138.53 243.75
  L 132.55 243.76
  Q 132.13 243.76 132.13 244.18
  Z
  M 349.83 298.95
  C 358.51 296.96 367.58 296.76 375.79 299.46
  A 0.33 0.32 -2.9 0 0 376.19 299.02
  Q 372.62 290.85 367.21 281.12
  Q 366.46 279.78 366.45 278.23
  Q 366.28 260.33 366.26 244.38
  Q 366.26 243.75 365.62 243.72
  Q 362.38 243.60 359.50 244.06
  Q 358.84 244.16 358.84 244.83
  L 358.76 278.50
  Q 358.75 279.03 358.47 279.47
  C 357.44 281.11 356.10 282.25 355.09 284.02
  Q 350.54 292.00 346.57 299.53
  Q 346.17 300.28 347.02 300.21
  Q 348.29 300.11 349.30 299.22
  Q 349.53 299.02 349.83 298.95
  Z
  M 157.23 266.00
  L 153.50 265.94
  Q 152.98 265.93 152.88 266.44
  Q 152.56 268.09 153.23 270.08
  Q 152.14 271.03 152.61 272.28
  Q 152.78 272.73 153.26 272.74
  L 158.19 272.80
  A 0.74 0.73 6.7 0 0 158.92 272.23
  Q 159.67 269.01 161.73 266.28
  Q 162.11 265.77 161.49 265.63
  Q 159.09 265.08 157.23 266.00
  Z
  M 345.49 272.21
  L 345.73 272.05
  A 0.39 0.37 74.2 0 0 345.90 271.73
  Q 345.87 269.11 345.89 266.45
  Q 345.90 265.82 345.60 265.63
  Q 345.21 265.36 344.51 265.74
  L 339.45 265.47
  Q 338.21 265.41 338.82 266.49
  Q 340.25 269.06 340.87 271.79
  Q 341.10 272.78 342.12 272.76
  L 345.14 272.69
  Q 345.37 272.68 345.43 272.47
  Q 345.47 272.33 345.49 272.21
  Z
  M 151.75 274.90
  Q 148.56 275.71 146.58 281.57
  Q 145.70 281.90 145.09 283.60
  Q 144.66 284.78 145.86 285.15
  Q 148.66 286.01 151.60 285.94
  L 155.90 286.03
  Q 156.44 286.04 156.52 285.50
  L 157.85 275.63
  Q 155.83 274.20 151.75 274.90
  Z
  M 347.78 277.98
  Q 346.72 275.04 344.78 275.29
  L 342.45 275.11
  Q 341.86 275.06 341.93 275.64
  L 342.58 281.33
  A 0.73 0.72 85.3 0 0 343.33 281.97
  L 349.28 281.73
  A 0.33 0.32 -15.2 0 0 349.56 281.25
  L 347.78 277.98
  Z
  M 343.27 296.05
  Q 342.88 297.59 342.87 297.87
  Q 342.77 300.84 344.49 298.41
  Q 345.11 297.53 345.21 295.98
  C 346.84 294.14 347.55 292.01 348.85 290.07
  C 349.93 288.45 352.19 285.76 350.34 284.04
  Q 349.93 283.66 349.37 283.67
  L 343.75 283.80
  Q 343.15 283.81 343.16 284.41
  L 343.27 296.05
  Z
  M 150.54 297.54
  Q 151.15 299.73 152.21 301.70
  Q 153.28 303.71 154.23 305.66
  Q 155.03 307.29 155.98 308.89
  Q 156.88 310.42 156.81 312.19
  C 156.68 315.23 155.61 319.57 153.10 321.60
  Q 151.67 322.76 150.79 324.41
  C 149.70 326.43 145.70 327.64 143.97 327.62
  Q 134.94 327.53 126.00 327.81
  Q 125.91 327.81 125.84 327.88
  Q 125.73 327.98 125.65 328.11
  A 0.35 0.34 -69.6 0 0 125.88 328.62
  Q 128.14 329.06 131.01 329.10
  Q 152.46 329.42 171.95 329.27
  A 0.96 0.96 0.0 0 0 172.64 327.65
  Q 166.10 320.69 162.60 312.97
  Q 162.05 311.75 161.37 310.57
  Q 160.69 309.40 160.40 307.97
  C 159.78 304.93 157.96 302.28 157.55 299.33
  Q 156.81 294.04 156.72 288.70
  Q 156.71 287.83 155.84 287.74
  L 151.29 287.24
  Q 150.01 286.74 148.55 286.96
  Q 148.04 287.04 147.99 287.55
  Q 147.38 293.09 150.54 297.54
  Z
  M 138.70 297.44
  L 134.86 306.71
  Q 134.53 307.52 135.40 307.55
  L 143.68 307.85
  L 147.26 307.80
  L 150.82 307.73
  Q 152.50 307.70 151.64 306.26
  Q 149.65 302.91 147.85 299.82
  C 146.10 296.84 144.93 293.29 143.34 290.05
  Q 143.12 289.34 142.89 289.09
  Q 142.62 288.78 142.29 289.39
  Q 140.11 293.33 138.70 297.44
  Z
  M 337.82 312.94
  L 336.27 315.74
  Q 335.91 316.39 336.65 316.37
  L 340.83 316.26
  Q 341.43 316.24 341.30 315.66
  L 340.73 312.94
  Q 341.23 307.13 343.17 301.65
  Q 343.20 301.56 343.11 301.53
  L 342.86 301.43
  Q 342.53 301.31 342.40 301.64
  L 337.82 312.94
  Z
  M 379.17 304.75
  Q 378.59 303.28 377.83 302.05
  Q 377.45 301.44 376.78 301.70
  Q 375.15 302.31 373.54 302.44
  Q 360.30 303.51 348.92 302.58
  Q 347.86 302.50 346.87 302.08
  A 1.23 1.23 0.0 0 0 345.26 302.73
  Q 342.72 308.63 343.65 315.76
  C 344.47 321.97 349.80 325.77 356.00 325.92
  Q 366.06 326.16 373.59 325.14
  Q 376.44 324.75 378.36 322.19
  C 382.32 316.89 381.47 310.63 379.17 304.75
  Z
  M 130.05 325.53
  L 137.52 325.54
  Q 144.83 326.23 149.48 322.10
  Q 153.00 319.51 153.87 314.97
  Q 154.39 312.21 152.47 310.26
  Q 152.12 309.90 151.62 309.89
  L 147.19 309.82
  L 144.14 309.72
  L 131.62 309.50
  Q 129.93 309.79 129.64 310.55
  L 128.54 311.16
  Q 125.82 311.69 123.73 310.99
  Q 119.52 309.60 117.67 309.12
  Q 117.07 308.97 116.78 309.51
  Q 113.81 315.10 116.49 320.16
  C 117.51 322.08 120.54 324.61 122.48 325.22
  Q 124.82 325.95 130.05 325.53
  Z
  M 328.63 326.64
  C 333.99 327.18 344.40 326.90 342.18 318.60
  A 1.01 1.00 -8.0 0 0 341.18 317.85
  L 335.26 317.97
  Q 334.67 317.98 334.36 318.47
  Q 331.74 322.70 328.46 326.17
  Q 328.07 326.58 328.63 326.64
  Z
  M 343.85 322.85
  L 343.13 324.91
  Q 342.94 325.46 343.52 325.48
  L 346.33 325.60
  Q 347.11 325.63 346.56 325.08
  L 344.20 322.77
  Q 343.96 322.53 343.85 322.85
  Z
  M 388.38 324.68
  C 386.40 323.89 384.24 323.29 382.25 322.80
  A 1.82 1.80 -60.5 0 0 380.52 323.29
  L 379.28 324.54
  Q 378.69 325.14 379.53 325.18
  Q 383.68 325.37 388.30 325.14
  Q 389.42 325.09 388.38 324.68
  Z
  M 361.92 329.24
  Q 369.31 329.25 374.87 328.96
  Q 375.12 328.95 375.12 328.71
  L 375.12 328.28
  A 0.32 0.31 89.1 0 0 374.80 327.96
  Q 362.00 328.06 349.33 327.59
  C 344.22 327.39 338.97 328.09 333.85 328.67
  Q 333.67 328.69 333.61 328.86
  Q 333.55 329.04 333.71 329.20
  Q 333.93 329.43 334.24 329.39
  Q 335.74 329.19 337.41 329.19
  Q 348.22 329.22 361.92 329.24
  Z"
/>
<path fill="#f0f0f0" d="
  M 326.16 272.13
  Q 329.76 299.81 310.35 318.84
  Q 308.17 320.97 305.63 322.55
  C 303.26 324.04 301.18 325.81 298.68 327.15
  Q 289.95 331.83 279.99 332.44
  Q 279.09 332.49 279.84 331.99
  Q 282.90 329.96 286.00 328.78
  Q 286.25 328.68 286.16 328.43
  L 286.08 328.19
  Q 286.06 328.13 286.00 328.14
  Q 281.48 329.53 277.30 330.75
  C 273.87 331.76 269.93 333.25 267.14 335.61
  C 263.77 338.45 259.34 341.83 254.95 342.58
  C 246.68 344.01 240.44 341.11 234.41 335.83
  C 228.00 330.22 218.92 327.77 210.43 326.64
  A 0.24 0.24 0.0 0 0 210.17 326.96
  Q 210.34 327.46 210.83 327.68
  Q 214.55 329.36 218.36 331.27
  Q 220.32 332.26 218.14 331.98
  C 203.64 330.17 190.77 320.37 182.82 308.28
  Q 177.72 300.53 175.76 291.23
  Q 173.91 282.41 174.67 273.11
  Q 174.83 271.24 173.94 272.89
  C 171.41 277.63 167.83 282.81 166.70 287.69
  C 164.25 298.24 166.77 309.07 171.79 318.58
  Q 171.85 318.68 171.75 318.74
  L 171.74 318.75
  Q 171.60 318.84 171.50 318.70
  Q 167.55 313.13 164.53 306.47
  Q 161.82 300.51 161.38 293.67
  C 160.57 280.88 164.30 269.82 171.38 259.23
  C 174.53 254.52 179.08 246.28 177.33 240.44
  C 174.43 230.76 181.83 220.81 186.48 212.94
  C 188.21 210.02 187.83 206.61 188.30 203.40
  Q 189.08 198.11 191.53 192.27
  Q 198.96 174.51 213.71 162.23
  Q 220.12 156.90 228.40 154.01
  Q 250.33 146.34 271.53 153.96
  Q 280.55 157.21 287.13 162.87
  Q 296.34 170.80 301.61 179.18
  Q 303.98 182.95 306.30 187.69
  Q 311.60 198.51 312.18 207.88
  C 312.46 212.28 315.79 216.65 318.13 220.22
  Q 323.03 227.69 323.28 236.53
  C 323.37 239.89 321.49 242.51 322.74 245.88
  C 324.69 251.18 327.25 256.31 330.30 261.05
  C 338.33 273.52 342.45 290.88 335.69 305.06
  Q 333.50 309.64 331.04 313.98
  Q 329.72 316.29 330.83 313.87
  Q 337.83 298.68 331.79 282.94
  Q 330.11 278.56 326.37 272.05
  Q 326.08 271.54 326.16 272.13
  Z
  M 205.18 202.81
  Q 198.57 207.68 195.46 216.74
  Q 194.49 219.55 195.47 222.18
  Q 197.48 227.59 201.41 230.47
  Q 208.41 235.61 216.23 234.89
  C 220.73 234.47 223.43 231.43 226.77 228.84
  C 230.56 225.92 234.19 226.56 238.27 228.05
  C 243.39 229.91 247.98 226.68 249.43 221.81
  Q 250.66 217.68 250.89 213.80
  Q 250.90 213.63 250.84 213.79
  C 249.94 216.49 248.93 220.18 247.09 222.14
  Q 242.21 227.36 235.14 223.02
  Q 229.85 219.77 227.60 217.57
  Q 222.15 212.22 216.88 206.45
  Q 214.89 204.26 209.75 200.14
  Q 207.36 198.22 205.01 198.04
  C 199.58 197.61 197.28 202.21 195.52 206.41
  Q 194.98 207.69 195.91 206.66
  C 197.24 205.19 197.84 203.28 199.49 202.11
  Q 202.08 200.26 205.14 202.06
  Q 205.74 202.40 205.18 202.81
  Z
  M 296.22 203.15
  Q 295.06 202.53 296.26 202.01
  Q 302.60 199.24 304.75 206.18
  Q 304.77 206.24 304.83 206.22
  L 305.12 206.12
  A 0.30 0.30 0.0 0 0 305.31 205.75
  C 304.40 202.72 302.22 198.75 298.81 198.16
  C 294.09 197.34 285.40 205.96 282.46 209.43
  C 278.41 214.22 274.21 218.43 268.92 222.04
  C 262.98 226.09 255.02 226.24 253.77 217.42
  Q 253.51 215.59 253.32 217.43
  C 252.71 223.40 256.74 230.36 263.74 228.10
  Q 265.19 227.64 266.67 227.15
  C 274.43 224.57 278.08 234.86 285.37 235.13
  Q 299.53 235.65 306.10 223.16
  C 307.33 220.81 306.22 216.20 305.03 213.95
  C 302.75 209.66 300.75 205.53 296.22 203.15
  Z
  M 303.83 314.02
  Q 298.71 320.79 292.14 323.03
  Q 289.76 323.85 292.26 323.58
  C 296.37 323.15 300.32 321.33 303.49 318.53
  C 314.27 308.96 321.79 296.73 322.13 281.70
  Q 322.30 273.97 320.90 267.63
  Q 319.74 262.36 319.56 258.01
  Q 319.45 255.25 319.04 252.94
  Q 318.55 250.21 318.40 247.49
  Q 318.01 240.66 316.82 234.07
  Q 316.47 232.16 315.86 234.00
  C 313.54 241.03 305.75 246.88 299.27 248.98
  A 2.63 2.63 0.0 0 0 297.45 251.52
  L 297.51 255.98
  Q 297.54 257.91 296.31 259.39
  L 294.84 261.14
  Q 293.67 262.54 293.47 260.73
  Q 293.10 257.48 291.71 253.94
  A 0.05 0.05 0.0 0 0 291.63 253.93
  Q 290.24 255.83 289.08 258.08
  A 0.59 0.56 -43.8 0 0 289.06 258.56
  Q 293.56 269.18 286.97 277.77
  Q 285.99 279.06 285.91 277.44
  C 285.68 272.58 285.24 267.98 282.33 264.00
  Q 282.01 263.57 281.53 263.80
  Q 250.79 278.21 220.13 263.72
  Q 219.76 263.55 219.38 263.57
  Q 218.82 263.61 219.02 264.26
  A 0.99 0.98 -38.0 0 1 218.92 265.04
  Q 215.44 270.82 215.52 278.00
  A 0.37 0.37 0.0 0 1 214.94 278.30
  Q 213.39 277.16 212.55 275.49
  Q 208.13 266.77 212.37 258.53
  Q 212.66 257.97 212.27 257.47
  L 209.89 254.42
  A 0.34 0.34 0.0 0 0 209.29 254.55
  L 207.60 261.75
  A 0.26 0.26 0.0 0 1 207.20 261.91
  C 204.69 260.17 203.08 257.41 203.22 254.32
  Q 203.31 252.51 203.15 250.69
  A 1.95 1.94 -82.7 0 0 201.87 249.03
  Q 191.20 245.21 184.87 234.84
  Q 184.45 234.16 184.28 234.94
  Q 182.13 245.05 182.28 256.31
  Q 182.34 260.25 181.68 263.97
  C 179.36 277.02 180.03 291.61 187.34 302.80
  Q 191.92 309.81 197.74 315.49
  Q 205.38 322.95 215.19 319.69
  C 218.88 318.46 222.01 315.94 225.44 314.11
  Q 226.71 313.43 228.07 313.53
  A 1.08 1.05 -17.0 0 1 228.79 313.90
  Q 235.75 322.01 245.41 322.68
  Q 248.97 322.93 252.84 322.86
  C 260.34 322.73 266.68 320.13 271.85 314.61
  A 3.01 3.00 -55.4 0 1 275.36 313.96
  C 279.07 315.76 281.98 318.48 285.95 319.74
  Q 294.52 322.47 301.12 316.52
  Q 302.42 315.35 303.74 313.94
  Q 304.54 313.09 303.83 314.02
  Z
  M 251.01 241.90
  C 247.22 237.32 240.18 235.71 234.77 239.17
  C 231.37 241.34 231.64 246.10 235.35 247.79
  Q 237.89 248.94 240.87 249.48
  Q 241.45 249.58 241.57 250.16
  C 242.52 254.69 245.75 256.71 249.15 259.27
  Q 250.71 260.44 251.12 262.10
  Q 251.57 263.94 252.19 262.15
  C 253.93 257.07 260.03 256.27 260.80 250.63
  A 1.40 1.38 86.9 0 1 261.83 249.47
  Q 264.27 248.84 266.75 248.06
  C 270.60 246.84 272.82 242.44 269.02 239.50
  Q 263.76 235.44 256.80 238.08
  Q 253.29 239.41 251.61 241.88
  Q 251.33 242.29 251.01 241.90
  Z"
/>
<path fill="#f0f0f0" d="
  M 370.14 181.39
  C 374.53 183.17 376.07 188.07 379.49 191.18
  C 381.12 192.66 383.28 193.23 385.02 194.56
  Q 388.78 197.43 390.43 201.53
  A 0.48 0.48 0.0 0 1 389.99 202.19
  L 336.45 202.01
  A 0.35 0.35 0.0 0 1 336.11 201.57
  Q 336.45 200.24 337.67 199.33
  Q 340.81 196.97 343.32 193.89
  C 346.16 190.42 350.21 189.03 353.35 186.00
  Q 354.58 184.80 355.84 183.57
  C 359.79 179.72 364.65 179.18 370.14 181.39
  Z"
/>
<path fill="#121212" d="
  M 205.14 202.06
  Q 202.08 200.26 199.49 202.11
  C 197.84 203.28 197.24 205.19 195.91 206.66
  Q 194.98 207.69 195.52 206.41
  C 197.28 202.21 199.58 197.61 205.01 198.04
  Q 207.36 198.22 209.75 200.14
  Q 214.89 204.26 216.88 206.45
  Q 222.15 212.22 227.60 217.57
  Q 229.85 219.77 235.14 223.02
  Q 242.21 227.36 247.09 222.14
  C 248.93 220.18 249.94 216.49 250.84 213.79
  Q 250.90 213.63 250.89 213.80
  Q 250.66 217.68 249.43 221.81
  C 247.98 226.68 243.39 229.91 238.27 228.05
  C 234.19 226.56 230.56 225.92 226.77 228.84
  C 223.43 231.43 220.73 234.47 216.23 234.89
  Q 208.41 235.61 201.41 230.47
  Q 197.48 227.59 195.47 222.18
  Q 194.49 219.55 195.46 216.74
  Q 198.57 207.68 205.18 202.81
  Q 205.74 202.40 205.14 202.06
  Z
  M 217.14 213.89
  L 217.62 212.96
  A 1.69 1.69 0.0 0 0 216.73 210.60
  C 212.82 209.08 210.23 212.84 210.57 216.23
  C 211.08 221.36 218.28 224.27 221.87 220.35
  Q 223.37 218.70 221.37 217.72
  L 217.82 215.96
  A 1.53 1.53 0.0 0 1 217.14 213.89
  Z
  M 209.26 228.09
  C 206.98 227.25 204.56 224.94 202.84 223.26
  Q 202.43 222.85 202.74 223.34
  Q 205.28 227.31 209.19 228.32
  Q 211.47 228.91 209.26 228.09
  Z"
/>
<path fill="#121212" d="
  M 296.22 203.15
  C 300.75 205.53 302.75 209.66 305.03 213.95
  C 306.22 216.20 307.33 220.81 306.10 223.16
  Q 299.53 235.65 285.37 235.13
  C 278.08 234.86 274.43 224.57 266.67 227.15
  Q 265.19 227.64 263.74 228.10
  C 256.74 230.36 252.71 223.40 253.32 217.43
  Q 253.51 215.59 253.77 217.42
  C 255.02 226.24 262.98 226.09 268.92 222.04
  C 274.21 218.43 278.41 214.22 282.46 209.43
  C 285.40 205.96 294.09 197.34 298.81 198.16
  C 302.22 198.75 304.40 202.72 305.31 205.75
  A 0.30 0.30 0.0 0 1 305.12 206.12
  L 304.83 206.22
  Q 304.77 206.24 304.75 206.18
  Q 302.60 199.24 296.26 202.01
  Q 295.06 202.53 296.22 203.15
  Z
  M 283.84 215.64
  Q 281.31 216.69 279.14 218.49
  Q 278.73 218.83 279.01 219.29
  C 283.27 226.18 293.67 219.67 290.18 212.71
  Q 288.18 208.72 284.38 211.57
  Q 283.28 212.40 284.00 213.57
  Q 284.41 214.22 284.33 214.98
  Q 284.28 215.46 283.84 215.64
  Z
  M 292.30 228.49
  Q 296.50 226.90 299.20 223.10
  Q 299.25 223.03 299.21 222.95
  Q 299.12 222.75 298.98 222.92
  Q 296.26 226.29 292.23 228.21
  Q 292.08 228.28 292.15 228.42
  L 292.15 228.43
  Q 292.20 228.53 292.30 228.49
  Z"
/>
<path fill="#f0f0f0" d="
  M 217.14 213.89
  A 1.53 1.53 0.0 0 0 217.82 215.96
  L 221.37 217.72
  Q 223.37 218.70 221.87 220.35
  C 218.28 224.27 211.08 221.36 210.57 216.23
  C 210.23 212.84 212.82 209.08 216.73 210.60
  A 1.69 1.69 0.0 0 1 217.62 212.96
  L 217.14 213.89
  Z"
/>
<path fill="#f0f0f0" d="
  M 284.33 214.98
  Q 284.41 214.22 284.00 213.57
  Q 283.28 212.40 284.38 211.57
  Q 288.18 208.72 290.18 212.71
  C 293.67 219.67 283.27 226.18 279.01 219.29
  Q 278.73 218.83 279.14 218.49
  Q 281.31 216.69 283.84 215.64
  Q 284.28 215.46 284.33 214.98
  Z"
/>
<path fill="#f0f0f0" d="
  M 292.30 228.49
  Q 292.20 228.53 292.15 228.43
  L 292.15 228.42
  Q 292.08 228.28 292.23 228.21
  Q 296.26 226.29 298.98 222.92
  Q 299.12 222.75 299.21 222.95
  Q 299.25 223.03 299.20 223.10
  Q 296.50 226.90 292.30 228.49
  Z"
/>
<path fill="#f0f0f0" d="
  M 209.19 228.32
  Q 205.28 227.31 202.74 223.34
  Q 202.43 222.85 202.84 223.26
  C 204.56 224.94 206.98 227.25 209.26 228.09
  Q 211.47 228.91 209.19 228.32
  Z"
/>
<path fill="#f0f0f0" d="
  M 143.35 239.01
  L 127.62 239.43
  A 1.77 1.77 0.0 0 0 126.27 242.29
  L 128.42 245.08
  Q 126.48 245.78 124.66 246.22
  Q 122.38 246.79 120.69 246.17
  C 116.77 244.74 112.35 240.71 116.46 236.46
  Q 117.94 234.94 122.88 231.37
  C 126.55 228.72 132.49 226.84 136.09 230.77
  Q 139.65 234.65 143.35 239.01
  Z"
/>
<path fill="#121212" d="
  M 303.74 313.94
  Q 302.42 315.35 301.12 316.52
  Q 294.52 322.47 285.95 319.74
  C 281.98 318.48 279.07 315.76 275.36 313.96
  A 3.01 3.00 -55.4 0 0 271.85 314.61
  C 266.68 320.13 260.34 322.73 252.84 322.86
  Q 248.97 322.93 245.41 322.68
  Q 235.75 322.01 228.79 313.90
  A 1.08 1.05 -17.0 0 0 228.07 313.53
  Q 226.71 313.43 225.44 314.11
  C 222.01 315.94 218.88 318.46 215.19 319.69
  Q 205.38 322.95 197.74 315.49
  Q 191.92 309.81 187.34 302.80
  C 180.03 291.61 179.36 277.02 181.68 263.97
  Q 182.34 260.25 182.28 256.31
  Q 182.13 245.05 184.28 234.94
  Q 184.45 234.16 184.87 234.84
  Q 191.20 245.21 201.87 249.03
  A 1.95 1.94 -82.7 0 1 203.15 250.69
  Q 203.31 252.51 203.22 254.32
  C 203.08 257.41 204.69 260.17 207.20 261.91
  A 0.26 0.26 0.0 0 0 207.60 261.75
  L 209.29 254.55
  A 0.34 0.34 0.0 0 1 209.89 254.42
  L 212.27 257.47
  Q 212.66 257.97 212.37 258.53
  Q 208.13 266.77 212.55 275.49
  Q 213.39 277.16 214.94 278.30
  A 0.37 0.37 0.0 0 0 215.52 278.00
  Q 215.44 270.82 218.92 265.04
  A 0.99 0.98 -38.0 0 0 219.02 264.26
  Q 218.82 263.61 219.38 263.57
  Q 219.76 263.55 220.13 263.72
  Q 250.79 278.21 281.53 263.80
  Q 282.01 263.57 282.33 264.00
  C 285.24 267.98 285.68 272.58 285.91 277.44
  Q 285.99 279.06 286.97 277.77
  Q 293.56 269.18 289.06 258.56
  A 0.59 0.56 -43.8 0 1 289.08 258.08
  Q 290.24 255.83 291.63 253.93
  A 0.05 0.05 0.0 0 1 291.71 253.94
  Q 293.10 257.48 293.47 260.73
  Q 293.67 262.54 294.84 261.14
  L 296.31 259.39
  Q 297.54 257.91 297.51 255.98
  L 297.45 251.52
  A 2.63 2.63 0.0 0 1 299.27 248.98
  C 305.75 246.88 313.54 241.03 315.86 234.00
  Q 316.47 232.16 316.82 234.07
  Q 318.01 240.66 318.40 247.49
  Q 318.55 250.21 319.04 252.94
  Q 319.45 255.25 319.56 258.01
  Q 319.74 262.36 320.90 267.63
  Q 322.30 273.97 322.13 281.70
  C 321.79 296.73 314.27 308.96 303.49 318.53
  C 300.32 321.33 296.37 323.15 292.26 323.58
  Q 289.76 323.85 292.14 323.03
  Q 298.71 320.79 303.83 314.02
  Q 304.54 313.09 303.74 313.94
  Z
  M 273.35 278.21
  A 0.79 0.79 0.0 0 0 274.79 278.25
  L 276.76 274.24
  A 0.79 0.79 0.0 0 0 276.84 273.92
  L 277.08 268.11
  A 0.79 0.79 0.0 0 0 276.00 267.34
  L 270.50 269.48
  A 0.79 0.79 0.0 0 0 270.06 270.53
  L 273.35 278.21
  Z
  M 224.56 274.74
  A 0.81 0.81 0.0 0 0 224.68 275.13
  L 226.79 278.46
  A 0.81 0.81 0.0 0 0 228.21 278.37
  L 231.88 270.49
  A 0.81 0.81 0.0 0 0 231.39 269.38
  L 225.28 267.43
  A 0.81 0.81 0.0 0 0 224.23 268.24
  L 224.56 274.74
  Z
  M 262.76 285.37
  C 266.40 281.16 268.23 276.52 268.15 270.78
  Q 268.15 270.46 267.83 270.53
  L 261.01 272.06
  Q 260.76 272.11 260.85 272.35
  Q 263.13 278.59 262.15 285.09
  Q 261.98 286.27 262.76 285.37
  Z
  M 234.27 271.34
  C 233.74 276.67 235.18 281.40 238.96 285.21
  Q 239.56 285.82 239.49 284.96
  C 239.22 281.39 239.04 275.55 241.22 272.84
  Q 241.66 272.29 240.97 272.15
  L 234.84 270.92
  Q 234.32 270.81 234.27 271.34
  Z
  M 250.76 300.46
  C 250.16 295.95 249.57 290.58 243.07 292.21
  C 236.56 293.84 235.40 300.64 239.22 305.49
  C 241.02 307.77 243.42 308.45 244.00 311.72
  Q 244.13 312.42 244.83 312.33
  C 247.31 311.99 249.65 311.40 252.19 311.68
  Q 254.50 311.93 256.76 312.46
  Q 257.28 312.58 257.40 312.07
  Q 258.11 309.08 260.60 306.17
  Q 263.56 302.71 263.69 298.75
  C 263.81 294.60 259.46 291.40 255.50 291.91
  C 254.25 292.07 253.20 292.79 252.80 294.01
  Q 251.73 297.23 251.12 300.47
  Q 250.91 301.58 250.76 300.46
  Z
  M 239.24 308.22
  C 235.34 307.85 232.75 304.52 230.58 301.55
  C 229.19 299.65 228.66 297.47 227.64 295.40
  Q 227.26 294.61 227.15 295.48
  C 226.20 303.59 228.18 310.95 235.90 315.13
  Q 250.16 322.86 265.26 315.28
  C 272.65 311.57 274.43 303.93 273.70 296.24
  Q 273.50 294.17 272.85 296.15
  Q 270.70 302.61 265.29 307.23
  Q 263.86 308.44 262.01 308.24
  Q 261.42 308.17 261.53 308.76
  C 261.86 310.49 262.49 314.52 260.08 315.08
  Q 259.29 315.27 257.43 314.76
  Q 254.06 313.85 250.58 313.71
  C 247.32 313.57 244.41 314.68 241.25 315.24
  A 1.53 1.53 0.0 0 1 239.45 313.72
  L 239.49 308.50
  A 0.28 0.27 4.5 0 0 239.24 308.22
  Z"
/>
<path fill="#121212" d="
  M 251.61 241.88
  Q 253.29 239.41 256.80 238.08
  Q 263.76 235.44 269.02 239.50
  C 272.82 242.44 270.60 246.84 266.75 248.06
  Q 264.27 248.84 261.83 249.47
  A 1.40 1.38 86.9 0 0 260.80 250.63
  C 260.03 256.27 253.93 257.07 252.19 262.15
  Q 251.57 263.94 251.12 262.10
  Q 250.71 260.44 249.15 259.27
  C 245.75 256.71 242.52 254.69 241.57 250.16
  Q 241.45 249.58 240.87 249.48
  Q 237.89 248.94 235.35 247.79
  C 231.64 246.10 231.37 241.34 234.77 239.17
  C 240.18 235.71 247.22 237.32 251.01 241.90
  Q 251.33 242.29 251.61 241.88
  Z"
/>
<path fill="#f0f0f0" d="
  M 132.13 244.18
  Q 132.13 243.76 132.55 243.76
  L 138.53 243.75
  A 0.68 0.67 88.7 0 1 139.21 244.41
  Q 139.55 262.07 139.41 278.90
  Q 139.38 282.51 141.52 286.49
  Q 141.77 286.94 141.54 287.40
  Q 136.68 297.08 132.66 307.53
  Q 132.45 308.08 131.86 308.11
  Q 124.99 308.53 118.21 308.26
  Q 117.20 308.22 117.72 307.35
  Q 124.82 295.29 130.50 284.44
  Q 132.04 281.49 132.04 277.89
  Q 132.05 261.84 132.13 244.18
  Z"
/>
<path fill="#f0f0f0" d="
  M 349.30 299.22
  Q 348.29 300.11 347.02 300.21
  Q 346.17 300.28 346.57 299.53
  Q 350.54 292.00 355.09 284.02
  C 356.10 282.25 357.44 281.11 358.47 279.47
  Q 358.75 279.03 358.76 278.50
  L 358.84 244.83
  Q 358.84 244.16 359.50 244.06
  Q 362.38 243.60 365.62 243.72
  Q 366.26 243.75 366.26 244.38
  Q 366.28 260.33 366.45 278.23
  Q 366.46 279.78 367.21 281.12
  Q 372.62 290.85 376.19 299.02
  A 0.33 0.32 -2.9 0 1 375.79 299.46
  C 367.58 296.76 358.51 296.96 349.83 298.95
  Q 349.53 299.02 349.30 299.22
  Z
  M 350.34 297.98
  L 350.55 298.11
  Q 350.61 298.15 350.64 298.09
  Q 352.80 294.76 354.30 291.09
  Q 354.37 290.94 354.22 290.87
  L 353.95 290.75
  Q 353.89 290.72 353.87 290.78
  Q 352.27 294.32 350.25 297.60
  A 0.28 0.27 32.5 0 0 350.34 297.98
  Z"
/>
<path fill="#121212" d="
  M 341.08 259.15
  Q 340.73 258.28 340.93 257.39
  Q 340.94 257.34 341.00 257.34
  L 341.00 257.34
  Q 341.15 257.34 341.15 257.48
  Q 341.14 258.75 341.13 260.00
  Q 341.13 260.11 341.02 260.13
  Q 340.97 260.14 340.92 260.13
  Q 340.85 260.12 340.85 260.05
  Q 340.85 259.89 340.96 259.77
  Q 341.21 259.50 341.08 259.15
  Z"
/>
<path fill="#f0f0f0" d="
  M 153.23 270.08
  L 157.23 266.00
  Q 159.09 265.08 161.49 265.63
  Q 162.11 265.77 161.73 266.28
  Q 159.67 269.01 158.92 272.23
  A 0.74 0.73 6.7 0 1 158.19 272.80
  L 153.26 272.74
  Q 152.78 272.73 152.61 272.28
  Q 152.14 271.03 153.23 270.08
  Z"
/>
<path fill="#f0f0f0" d="
  M 344.51 265.74
  L 342.94 266.04
  Q 342.06 266.21 342.82 266.69
  L 343.13 266.88
  Q 343.58 267.16 343.69 267.69
  Q 344.05 269.52 344.67 271.47
  Q 344.77 271.78 344.98 271.93
  Q 345.22 272.12 345.49 272.21
  Q 345.47 272.33 345.43 272.47
  Q 345.37 272.68 345.14 272.69
  L 342.12 272.76
  Q 341.10 272.78 340.87 271.79
  Q 340.25 269.06 338.82 266.49
  Q 338.21 265.41 339.45 265.47
  L 344.51 265.74
  Z"
/>
<path fill="#f0f0f0" d="
  M 273.35 278.21
  L 270.06 270.53
  A 0.79 0.79 0.0 0 1 270.50 269.48
  L 276.00 267.34
  A 0.79 0.79 0.0 0 1 277.08 268.11
  L 276.84 273.92
  A 0.79 0.79 0.0 0 1 276.76 274.24
  L 274.79 278.25
  A 0.79 0.79 0.0 0 1 273.35 278.21
  Z"
/>
<path fill="#f0f0f0" d="
  M 224.56 274.74
  L 224.23 268.24
  A 0.81 0.81 0.0 0 1 225.28 267.43
  L 231.39 269.38
  A 0.81 0.81 0.0 0 1 231.88 270.49
  L 228.21 278.37
  A 0.81 0.81 0.0 0 1 226.79 278.46
  L 224.68 275.13
  A 0.81 0.81 0.0 0 1 224.56 274.74
  Z"
/>
<path fill="#f0f0f0" d="
  M 268.15 270.78
  C 268.23 276.52 266.40 281.16 262.76 285.37
  Q 261.98 286.27 262.15 285.09
  Q 263.13 278.59 260.85 272.35
  Q 260.76 272.11 261.01 272.06
  L 267.83 270.53
  Q 268.15 270.46 268.15 270.78
  Z"
/>
<path fill="#f0f0f0" d="
  M 238.96 285.21
  C 235.18 281.40 233.74 276.67 234.27 271.34
  Q 234.32 270.81 234.84 270.92
  L 240.97 272.15
  Q 241.66 272.29 241.22 272.84
  C 239.04 275.55 239.22 281.39 239.49 284.96
  Q 239.56 285.82 238.96 285.21
  Z"
/>
<path fill="#9a9a9a" d="
  M 157.85 275.63
  Q 155.52 277.01 155.37 278.50
  C 155.20 280.26 154.86 281.26 153.49 282.62
  Q 152.08 284.02 151.60 285.94
  Q 148.66 286.01 145.86 285.15
  Q 144.66 284.78 145.09 283.60
  Q 145.70 281.90 146.58 281.57
  L 151.75 274.90
  Q 155.83 274.20 157.85 275.63
  Z"
/>
<path fill="#f0f0f0" d="
  M 151.75 274.90
  L 146.58 281.57
  Q 148.56 275.71 151.75 274.90
  Z"
/>
<path fill="#9a9a9a" d="
  M 344.78 275.29
  L 344.19 277.60
  Q 344.06 278.10 344.58 278.09
  L 347.78 277.98
  L 349.56 281.25
  A 0.33 0.32 -15.2 0 1 349.28 281.73
  L 343.33 281.97
  A 0.73 0.72 85.3 0 1 342.58 281.33
  L 341.93 275.64
  Q 341.86 275.06 342.45 275.11
  L 344.78 275.29
  Z"
/>
<path fill="#f0f0f0" d="
  M 344.78 275.29
  Q 346.72 275.04 347.78 277.98
  L 344.58 278.09
  Q 344.06 278.10 344.19 277.60
  L 344.78 275.29
  Z"
/>
<path fill="#383838" d="
  M 157.85 275.63
  L 156.52 285.50
  Q 156.44 286.04 155.90 286.03
  L 151.60 285.94
  Q 152.08 284.02 153.49 282.62
  C 154.86 281.26 155.20 280.26 155.37 278.50
  Q 155.52 277.01 157.85 275.63
  Z"
/>
<path fill="#595959" d="
  M 369.63 277.83
  L 369.73 280.69
  Q 368.95 279.59 369.63 277.83
  Z"
/>
<path fill="#9a9a9a" d="
  M 345.21 295.98
  Q 344.32 295.81 343.27 296.05
  L 343.16 284.41
  Q 343.15 283.81 343.75 283.80
  L 349.37 283.67
  Q 349.93 283.66 350.34 284.04
  C 352.19 285.76 349.93 288.45 348.85 290.07
  C 347.55 292.01 346.84 294.14 345.21 295.98
  Z"
/>
<path fill="#595959" d="
  M 151.29 287.24
  Q 152.41 292.62 152.08 296.25
  Q 151.92 298.01 150.54 297.54
  Q 147.38 293.09 147.99 287.55
  Q 148.04 287.04 148.55 286.96
  Q 150.01 286.74 151.29 287.24
  Z"
/>
<path fill="#383838" d="
  M 151.29 287.24
  L 155.84 287.74
  Q 156.71 287.83 156.72 288.70
  Q 156.81 294.04 157.55 299.33
  C 157.96 302.28 159.78 304.93 160.40 307.97
  Q 160.69 309.40 161.37 310.57
  Q 162.05 311.75 162.60 312.97
  Q 166.10 320.69 172.64 327.65
  A 0.96 0.96 0.0 0 1 171.95 329.27
  Q 152.46 329.42 131.01 329.10
  Q 128.14 329.06 125.88 328.62
  A 0.35 0.34 -69.6 0 1 125.65 328.11
  Q 125.73 327.98 125.84 327.88
  Q 125.91 327.81 126.00 327.81
  Q 134.94 327.53 143.97 327.62
  C 145.70 327.64 149.70 326.43 150.79 324.41
  Q 151.67 322.76 153.10 321.60
  C 155.61 319.57 156.68 315.23 156.81 312.19
  Q 156.88 310.42 155.98 308.89
  Q 155.03 307.29 154.23 305.66
  Q 153.28 303.71 152.21 301.70
  Q 151.15 299.73 150.54 297.54
  Q 151.92 298.01 152.08 296.25
  Q 152.41 292.62 151.29 287.24
  Z
  M 159.25 316.39
  Q 159.08 316.46 159.13 316.64
  Q 159.67 318.69 161.38 320.17
  Q 161.43 320.21 161.47 320.17
  L 161.79 319.87
  Q 162.12 319.56 161.76 319.29
  Q 160.27 318.16 159.49 316.47
  Q 159.42 316.32 159.26 316.39
  L 159.25 316.39
  Z"
/>
<path fill="#9a9a9a" d="
  M 143.34 290.05
  Q 141.91 292.72 142.54 295.25
  Q 144.01 301.13 147.26 307.80
  L 143.68 307.85
  Q 139.67 303.50 138.70 297.44
  Q 140.11 293.33 142.29 289.39
  Q 142.62 288.78 142.89 289.09
  Q 143.12 289.34 143.34 290.05
  Z"
/>
<path fill="#595959" d="
  M 143.34 290.05
  C 144.93 293.29 146.10 296.84 147.85 299.82
  Q 149.65 302.91 151.64 306.26
  Q 152.50 307.70 150.82 307.73
  L 147.26 307.80
  Q 144.01 301.13 142.54 295.25
  Q 141.91 292.72 143.34 290.05
  Z"
/>
<path fill="#383838" d="
  M 350.25 297.60
  Q 352.27 294.32 353.87 290.78
  Q 353.89 290.72 353.95 290.75
  L 354.22 290.87
  Q 354.37 290.94 354.30 291.09
  Q 352.80 294.76 350.64 298.09
  Q 350.61 298.15 350.55 298.11
  L 350.34 297.98
  A 0.28 0.27 32.5 0 1 350.25 297.60
  Z"
/>
<path fill="#f0f0f0" d="
  M 251.12 300.47
  Q 251.73 297.23 252.80 294.01
  C 253.20 292.79 254.25 292.07 255.50 291.91
  C 259.46 291.40 263.81 294.60 263.69 298.75
  Q 263.56 302.71 260.60 306.17
  Q 258.11 309.08 257.40 312.07
  Q 257.28 312.58 256.76 312.46
  Q 254.50 311.93 252.19 311.68
  C 249.65 311.40 247.31 311.99 244.83 312.33
  Q 244.13 312.42 244.00 311.72
  C 243.42 308.45 241.02 307.77 239.22 305.49
  C 235.40 300.64 236.56 293.84 243.07 292.21
  C 249.57 290.58 250.16 295.95 250.76 300.46
  Q 250.91 301.58 251.12 300.47
  Z"
/>
<path fill="#f0f0f0" d="
  M 239.24 308.22
  A 0.28 0.27 4.5 0 1 239.49 308.50
  L 239.45 313.72
  A 1.53 1.53 0.0 0 0 241.25 315.24
  C 244.41 314.68 247.32 313.57 250.58 313.71
  Q 254.06 313.85 257.43 314.76
  Q 259.29 315.27 260.08 315.08
  C 262.49 314.52 261.86 310.49 261.53 308.76
  Q 261.42 308.17 262.01 308.24
  Q 263.86 308.44 265.29 307.23
  Q 270.70 302.61 272.85 296.15
  Q 273.50 294.17 273.70 296.24
  C 274.43 303.93 272.65 311.57 265.26 315.28
  Q 250.16 322.86 235.90 315.13
  C 228.18 310.95 226.20 303.59 227.15 295.48
  Q 227.26 294.61 227.64 295.40
  C 228.66 297.47 229.19 299.65 230.58 301.55
  C 232.75 304.52 235.34 307.85 239.24 308.22
  Z"
/>
<path fill="#595959" d="
  M 343.27 296.05
  Q 344.32 295.81 345.21 295.98
  Q 345.11 297.53 344.49 298.41
  Q 342.77 300.84 342.87 297.87
  Q 342.88 297.59 343.27 296.05
  Z"
/>
<path fill="#595959" d="
  M 138.70 297.44
  Q 139.67 303.50 143.68 307.85
  L 135.40 307.55
  Q 134.53 307.52 134.86 306.71
  L 138.70 297.44
  Z"
/>
<path fill="#9a9a9a" d="
  M 340.73 312.94
  Q 339.53 313.82 337.82 312.94
  L 342.40 301.64
  Q 342.53 301.31 342.86 301.43
  L 343.11 301.53
  Q 343.20 301.56 343.17 301.65
  Q 341.23 307.13 340.73 312.94
  Z"
/>
<path fill="#f0f0f0" d="
  M 379.17 304.75
  C 381.47 310.63 382.32 316.89 378.36 322.19
  Q 376.44 324.75 373.59 325.14
  Q 366.06 326.16 356.00 325.92
  C 349.80 325.77 344.47 321.97 343.65 315.76
  Q 342.72 308.63 345.26 302.73
  A 1.23 1.23 0.0 0 1 346.87 302.08
  Q 347.86 302.50 348.92 302.58
  Q 360.30 303.51 373.54 302.44
  Q 375.15 302.31 376.78 301.70
  Q 377.45 301.44 377.83 302.05
  Q 378.59 303.28 379.17 304.75
  Z"
/>
<path fill="#f0f0f0" d="
  M 128.54 311.16
  Q 129.88 311.15 130.76 312.24
  A 0.94 0.94 0.0 0 1 130.66 313.53
  L 129.53 314.53
  Q 129.12 314.90 129.47 315.33
  Q 130.74 316.88 131.07 319.14
  A 0.59 0.58 -86.2 0 1 130.33 319.79
  Q 126.16 318.61 122.63 316.87
  Q 120.64 315.89 120.73 318.10
  Q 120.77 318.92 120.93 319.66
  Q 121.44 321.98 123.63 322.88
  L 130.05 325.53
  Q 124.82 325.95 122.48 325.22
  C 120.54 324.61 117.51 322.08 116.49 320.16
  Q 113.81 315.10 116.78 309.51
  Q 117.07 308.97 117.67 309.12
  Q 119.52 309.60 123.73 310.99
  Q 125.82 311.69 128.54 311.16
  Z"
/>
<path fill="#595959" d="
  M 144.14 309.72
  Q 145.50 312.47 146.65 315.16
  Q 147.59 317.40 147.17 318.98
  Q 146.55 321.24 144.38 322.15
  Q 140.97 323.58 137.52 325.54
  L 130.05 325.53
  L 123.63 322.88
  Q 121.44 321.98 120.93 319.66
  Q 120.77 318.92 120.73 318.10
  Q 120.64 315.89 122.63 316.87
  Q 126.16 318.61 130.33 319.79
  A 0.59 0.58 -86.2 0 0 131.07 319.14
  Q 130.74 316.88 129.47 315.33
  Q 129.12 314.90 129.53 314.53
  L 130.66 313.53
  A 0.94 0.94 0.0 0 0 130.76 312.24
  Q 129.88 311.15 128.54 311.16
  L 129.64 310.55
  Q 132.96 310.95 131.62 309.50
  L 144.14 309.72
  Z"
/>
<path fill="#9a9a9a" d="
  M 131.62 309.50
  Q 132.96 310.95 129.64 310.55
  Q 129.93 309.79 131.62 309.50
  Z"
/>
<path fill="#f0f0f0" d="
  M 144.14 309.72
  L 147.19 309.82
  Q 149.73 314.36 150.18 317.25
  Q 150.38 318.55 149.48 322.10
  Q 144.83 326.23 137.52 325.54
  Q 140.97 323.58 144.38 322.15
  Q 146.55 321.24 147.17 318.98
  Q 147.59 317.40 146.65 315.16
  Q 145.50 312.47 144.14 309.72
  Z"
/>
<path fill="#595959" d="
  M 147.19 309.82
  L 151.62 309.89
  Q 152.12 309.90 152.47 310.26
  Q 154.39 312.21 153.87 314.97
  Q 153.00 319.51 149.48 322.10
  Q 150.38 318.55 150.18 317.25
  Q 149.73 314.36 147.19 309.82
  Z"
/>
<path fill="#f0f0f0" d="
  M 337.82 312.94
  Q 339.53 313.82 340.73 312.94
  L 341.30 315.66
  Q 341.43 316.24 340.83 316.26
  L 336.65 316.37
  Q 335.91 316.39 336.27 315.74
  L 337.82 312.94
  Z"
/>
<path fill="#9a9a9a" d="
  M 159.49 316.47
  Q 160.27 318.16 161.76 319.29
  Q 162.12 319.56 161.79 319.87
  L 161.47 320.17
  Q 161.43 320.21 161.38 320.17
  Q 159.67 318.69 159.13 316.64
  Q 159.08 316.46 159.25 316.39
  L 159.26 316.39
  Q 159.42 316.32 159.49 316.47
  Z"
/>
<path fill="#f0f0f0" d="
  M 342.18 318.60
  C 344.40 326.90 333.99 327.18 328.63 326.64
  Q 328.07 326.58 328.46 326.17
  Q 331.74 322.70 334.36 318.47
  Q 334.67 317.98 335.26 317.97
  L 341.18 317.85
  A 1.01 1.00 -8.0 0 1 342.18 318.60
  Z"
/>
<path fill="#f0f0f0" d="
  M 343.13 324.91
  L 343.85 322.85
  Q 343.96 322.53 344.20 322.77
  L 346.56 325.08
  Q 347.11 325.63 346.33 325.60
  L 343.52 325.48
  Q 342.94 325.46 343.13 324.91
  Z"
/>
<path fill="#9a9a9a" d="
  M 382.25 322.80
  C 384.24 323.29 386.40 323.89 388.38 324.68
  Q 389.42 325.09 388.30 325.14
  Q 383.68 325.37 379.53 325.18
  Q 378.69 325.14 379.28 324.54
  L 380.52 323.29
  A 1.82 1.80 -60.5 0 1 382.25 322.80
  Z"
/>
<path fill="#595959" d="
  M 361.92 329.24
  Q 348.22 329.22 337.41 329.19
  Q 335.74 329.19 334.24 329.39
  Q 333.93 329.43 333.71 329.20
  Q 333.55 329.04 333.61 328.86
  Q 333.67 328.69 333.85 328.67
  C 338.97 328.09 344.22 327.39 349.33 327.59
  Q 362.00 328.06 374.80 327.96
  A 0.32 0.31 89.1 0 1 375.12 328.28
  L 375.12 328.71
  Q 375.12 328.95 374.87 328.96
  Q 369.31 329.25 361.92 329.24
  Z"
/>
</svg>
