<?xml version="1.0" encoding="UTF-8" standalone="no"?>
<!DOCTYPE svg PUBLIC "-//W3C//DTD SVG 1.1//EN" "http://www.w3.org/Graphics/SVG/1.1/DTD/svg11.dtd">
<svg xmlns="http://www.w3.org/2000/svg" version="1.1" viewBox="0.00 0.00 500.00 500.00">
<g stroke-width="2.00" fill="none" stroke-linecap="butt">
<path stroke="#605e5e" vector-effect="non-scaling-stroke" d="
  M 371.05 126.80
  L 370.68 126.98"
/>
<path stroke="#4b4949" vector-effect="non-scaling-stroke" d="
  M 370.68 126.98
  Q 369.40 121.88 368.24 116.74
  Q 367.69 114.31 364.46 111.43
  Q 363.32 110.41 361.67 110.46
  Q 360.02 110.51 358.55 111.21
  Q 356.55 112.18 354.38 112.63
  Q 345.03 114.55 336.92 117.27
  Q 335.44 117.76 333.94 118.06
  Q 332.25 118.39 330.87 119.08
  Q 328.62 120.20 326.60 120.70
  Q 320.85 122.12 314.62 123.99
  Q 314.21 124.11 313.95 124.46
  Q 313.43 125.14 312.59 125.14
  Q 312.13 125.14 311.74 125.39
  Q 310.55 126.16 309.21 126.12
  Q 308.84 126.10 308.54 126.33
  Q 307.01 127.51 305.04 127.99
  Q 303.53 128.36 302.07 129.04
  Q 298.39 130.76 294.27 131.50
  C 292.51 131.82 289.06 131.01 287.44 130.22
  Q 283.81 128.46 280.27 126.78"
/>
<path stroke="#605e5e" vector-effect="non-scaling-stroke" d="
  M 280.27 126.78
  Q 277.66 125.07 274.95 124.55"
/>
<path stroke="#4b4949" vector-effect="non-scaling-stroke" d="
  M 274.95 124.55
  Q 270.58 122.67 266.11 120.94
  Q 262.75 119.63 259.42 118.03
  Q 255.03 115.92 252.40 115.44
  Q 250.73 115.13 249.01 115.69
  Q 243.84 117.38 237.10 120.63"
/>
<path stroke="#605e5e" vector-effect="non-scaling-stroke" d="
  M 237.10 120.63
  Q 234.75 120.81 232.53 122.37"
/>
<path stroke="#4b4949" vector-effect="non-scaling-stroke" d="
  M 232.53 122.37
  Q 230.41 123.26 228.28 124.34
  Q 227.49 124.74 226.63 124.97
  Q 225.76 125.21 225.04 125.76
  Q 224.15 126.44 223.09 126.89
  Q 218.16 128.96 213.98 131.05
  Q 211.30 132.38 208.36 131.34
  Q 207.19 130.92 205.98 130.56
  Q 204.79 130.19 203.69 129.75
  Q 201.98 129.06 200.22 128.68
  Q 197.65 128.12 195.47 127.04
  Q 193.03 125.85 190.10 125.28
  Q 187.60 124.79 185.58 123.95
  A 46.92 13.09 7.0 0 0 180.78 122.13
  Q 176.46 120.64 172.06 119.22
  Q 168.11 117.94 164.18 116.50
  Q 158.75 114.52 152.75 113.21
  Q 150.31 112.68 147.99 111.83
  Q 145.10 110.77 139.97 111.03"
/>
<path stroke="#1b1b1a" vector-effect="non-scaling-stroke" d="
  M 370.68 126.98
  Q 370.94 131.70 368.29 136.30
  Q 366.81 138.88 366.36 142.39"
/>
<path stroke="#1b1b1a" vector-effect="non-scaling-stroke" d="
  M 365.66 220.98
  Q 368.63 230.13 371.42 236.34
  Q 376.84 248.36 378.13 251.79
  Q 379.95 256.60 382.11 261.27
  Q 384.56 266.55 386.11 270.70
  Q 388.94 278.25 392.04 285.46
  C 392.51 286.54 392.51 287.64 392.85 288.78
  Q 393.27 290.22 393.26 291.28
  Q 392.93 324.24 393.57 357.38"
/>
<path stroke="#1b1b1a" vector-effect="non-scaling-stroke" d="
  M 232.53 122.37
  Q 234.83 122.04 237.10 120.63"
/>
<path stroke="#1b1b1a" vector-effect="non-scaling-stroke" d="
  M 274.95 124.55
  Q 276.21 124.97 276.60 125.62
  Q 276.85 126.03 277.31 126.13
  L 280.27 126.78"
/>
<path stroke="#1b1b1a" vector-effect="non-scaling-stroke" d="
  M 297.58 136.76
  Q 297.68 136.46 297.55 136.31
  Q 297.29 136.00 296.98 136.27
  Q 296.58 136.62 296.13 136.85
  Q 294.57 137.64 296.24 138.13
  Q 296.91 138.33 297.36 138.86
  A 0.30 0.30 0.0 0 0 297.88 138.74
  Q 297.94 138.50 297.82 138.05"
/>
<path stroke="#1b1b1a" vector-effect="non-scaling-stroke" d="
  M 119.89 288.43
  Q 119.16 288.38 119.21 289.51
  Q 119.24 290.06 119.30 290.58
  Q 119.36 291.06 119.02 291.41
  Q 118.28 292.17 119.18 292.82"
/>
<path stroke="#4b4949" vector-effect="non-scaling-stroke" d="
  M 249.56 383.50
  Q 251.53 384.63 254.76 384.08
  Q 260.34 383.12 263.67 382.16"
/>
<path stroke="#1b1b1a" vector-effect="non-scaling-stroke" d="
  M 263.67 382.16
  Q 269.34 382.39 274.71 380.26"
/>
<path stroke="#1b1b1a" vector-effect="non-scaling-stroke" d="
  M 386.00 292.45
  Q 386.25 292.26 386.33 292.02
  Q 386.39 291.81 386.23 291.52
  Q 385.38 289.97 384.28 288.33"
/>
<path stroke="#605e5e" vector-effect="non-scaling-stroke" d="
  M 260.78 378.52
  L 251.78 381.97"
/>
<path stroke="#605e5e" vector-effect="non-scaling-stroke" d="
  M 263.73 382.00
  Q 263.70 382.08 263.67 382.16"
/>
</g>
<path fill="#908c8d" d="
  M 371.05 126.80
  L 370.68 126.98
  Q 369.40 121.88 368.24 116.74
  Q 367.69 114.31 364.46 111.43
  Q 363.32 110.41 361.67 110.46
  Q 360.02 110.51 358.55 111.21
  Q 356.55 112.18 354.38 112.63
  Q 345.03 114.55 336.92 117.27
  Q 335.44 117.76 333.94 118.06
  Q 332.25 118.39 330.87 119.08
  Q 328.62 120.20 326.60 120.70
  Q 320.85 122.12 314.62 123.99
  Q 314.21 124.11 313.95 124.46
  Q 313.43 125.14 312.59 125.14
  Q 312.13 125.14 311.74 125.39
  Q 310.55 126.16 309.21 126.12
  Q 308.84 126.10 308.54 126.33
  Q 307.01 127.51 305.04 127.99
  Q 303.53 128.36 302.07 129.04
  Q 298.39 130.76 294.27 131.50
  C 292.51 131.82 289.06 131.01 287.44 130.22
  Q 283.81 128.46 280.27 126.78
  Q 277.66 125.07 274.95 124.55
  Q 270.58 122.67 266.11 120.94
  Q 262.75 119.63 259.42 118.03
  Q 255.03 115.92 252.40 115.44
  Q 250.73 115.13 249.01 115.69
  Q 243.84 117.38 237.10 120.63
  Q 234.75 120.81 232.53 122.37
  Q 230.41 123.26 228.28 124.34
  Q 227.49 124.74 226.63 124.97
  Q 225.76 125.21 225.04 125.76
  Q 224.15 126.44 223.09 126.89
  Q 218.16 128.96 213.98 131.05
  Q 211.30 132.38 208.36 131.34
  Q 207.19 130.92 205.98 130.56
  Q 204.79 130.19 203.69 129.75
  Q 201.98 129.06 200.22 128.68
  Q 197.65 128.12 195.47 127.04
  Q 193.03 125.85 190.10 125.28
  Q 187.60 124.79 185.58 123.95
  A 46.92 13.09 7.0 0 0 180.78 122.13
  Q 176.46 120.64 172.06 119.22
  Q 168.11 117.94 164.18 116.50
  Q 158.75 114.52 152.75 113.21
  Q 150.31 112.68 147.99 111.83
  Q 145.10 110.77 139.97 111.03
  Q 143.85 108.75 148.99 110.36
  C 159.54 113.65 170.30 116.52 180.69 120.32
  C 188.38 123.14 196.61 125.47 204.28 128.73
  Q 210.58 131.40 216.77 128.19
  Q 232.18 120.21 246.01 115.58
  C 250.31 114.14 254.96 114.53 259.18 116.39
  Q 264.70 118.81 270.38 121.03
  C 276.57 123.44 282.26 126.62 288.32 128.97
  C 294.94 131.53 301.92 127.14 308.04 124.94
  Q 325.67 118.61 341.98 113.88
  C 347.57 112.26 355.02 108.79 360.31 109.17
  Q 365.06 109.52 367.46 114.22
  Q 370.44 120.07 371.05 126.80
  Z"
/>
<path fill="#060605" d="
  M 370.68 126.98
  Q 370.94 131.70 368.29 136.30
  Q 366.81 138.88 366.36 142.39
  C 364.71 146.38 363.54 150.68 361.87 154.56
  C 358.34 162.76 355.46 170.08 353.03 178.31
  Q 351.87 182.25 352.16 185.21
  Q 352.55 189.19 356.28 197.33
  Q 361.64 209.00 365.66 220.98
  Q 368.63 230.13 371.42 236.34
  Q 376.84 248.36 378.13 251.79
  Q 379.95 256.60 382.11 261.27
  Q 384.56 266.55 386.11 270.70
  Q 388.94 278.25 392.04 285.46
  C 392.51 286.54 392.51 287.64 392.85 288.78
  Q 393.27 290.22 393.26 291.28
  Q 392.93 324.24 393.57 357.38
  Q 393.44 362.71 388.52 364.75
  Q 383.53 366.80 376.66 367.86
  Q 332.35 374.70 289.72 382.44
  C 278.16 384.54 266.94 385.73 255.64 387.65
  Q 252.81 388.14 249.27 387.51
  C 238.24 385.58 227.85 384.51 216.63 382.63
  Q 195.80 379.14 175.72 375.34
  Q 150.14 370.49 124.11 365.67
  Q 120.60 365.02 115.97 363.86
  C 112.12 362.89 111.13 355.87 111.16 352.61
  Q 111.45 327.51 111.30 301.34
  C 111.25 292.49 113.19 285.83 117.17 276.35
  Q 125.56 256.40 132.53 239.36
  Q 135.51 232.06 138.43 224.26
  C 143.06 211.91 148.97 199.57 152.70 187.63
  C 153.58 184.84 153.10 181.48 152.12 178.78
  C 150.49 174.26 149.16 169.62 147.46 165.19
  Q 141.66 150.11 135.38 133.33
  C 133.29 127.75 134.46 121.80 136.16 116.50
  Q 137.16 113.41 139.97 111.03
  Q 145.10 110.77 147.99 111.83
  Q 150.31 112.68 152.75 113.21
  Q 158.75 114.52 164.18 116.50
  Q 168.11 117.94 172.06 119.22
  Q 176.46 120.64 180.78 122.13
  A 46.92 13.09 7.0 0 1 185.58 123.95
  Q 187.60 124.79 190.10 125.28
  Q 193.03 125.85 195.47 127.04
  Q 197.65 128.12 200.22 128.68
  Q 201.98 129.06 203.69 129.75
  Q 204.79 130.19 205.98 130.56
  Q 207.19 130.92 208.36 131.34
  Q 211.30 132.38 213.98 131.05
  Q 218.16 128.96 223.09 126.89
  Q 224.15 126.44 225.04 125.76
  Q 225.76 125.21 226.63 124.97
  Q 227.49 124.74 228.28 124.34
  Q 230.41 123.26 232.53 122.37
  Q 234.83 122.04 237.10 120.63
  Q 243.84 117.38 249.01 115.69
  Q 250.73 115.13 252.40 115.44
  Q 255.03 115.92 259.42 118.03
  Q 262.75 119.63 266.11 120.94
  Q 270.58 122.67 274.95 124.55
  Q 276.21 124.97 276.60 125.62
  Q 276.85 126.03 277.31 126.13
  L 280.27 126.78
  Q 283.81 128.46 287.44 130.22
  C 289.06 131.01 292.51 131.82 294.27 131.50
  Q 298.39 130.76 302.07 129.04
  Q 303.53 128.36 305.04 127.99
  Q 307.01 127.51 308.54 126.33
  Q 308.84 126.10 309.21 126.12
  Q 310.55 126.16 311.74 125.39
  Q 312.13 125.14 312.59 125.14
  Q 313.43 125.14 313.95 124.46
  Q 314.21 124.11 314.62 123.99
  Q 320.85 122.12 326.60 120.70
  Q 328.62 120.20 330.87 119.08
  Q 332.25 118.39 333.94 118.06
  Q 335.44 117.76 336.92 117.27
  Q 345.03 114.55 354.38 112.63
  Q 356.55 112.18 358.55 111.21
  Q 360.02 110.51 361.67 110.46
  Q 363.32 110.41 364.46 111.43
  Q 367.69 114.31 368.24 116.74
  Q 369.40 121.88 370.68 126.98
  Z
  M 297.58 136.76
  Q 297.68 136.46 297.55 136.31
  Q 297.29 136.00 296.98 136.27
  Q 296.58 136.62 296.13 136.85
  Q 294.57 137.64 296.24 138.13
  Q 296.91 138.33 297.36 138.86
  A 0.30 0.30 0.0 0 0 297.88 138.74
  Q 297.94 138.50 297.82 138.05
  L 313.04 147.61
  A 1.76 1.72 -37.5 0 0 314.52 147.79
  L 316.48 147.15
  Q 316.99 146.99 317.49 147.21
  Q 319.76 148.24 321.75 150.16
  Q 333.92 161.87 344.34 175.40
  A 1.31 1.31 0.0 0 0 346.47 175.31
  Q 347.59 173.59 348.44 171.49
  Q 355.92 152.82 364.05 133.77
  Q 366.23 128.66 365.77 125.52
  Q 365.25 121.86 363.78 117.57
  A 0.93 0.91 -10.4 0 0 362.86 116.95
  Q 360.73 117.07 358.73 117.64
  Q 328.43 126.33 298.01 136.32
  Q 297.74 136.41 297.58 136.76
  Z
  M 193.01 145.54
  C 196.64 142.61 200.15 140.42 204.22 138.79
  A 1.32 1.32 0.0 0 0 204.54 136.53
  Q 203.80 135.95 202.84 135.67
  Q 198.00 134.25 193.29 132.62
  Q 175.16 126.34 146.97 118.24
  Q 144.45 117.51 141.90 117.26
  A 1.56 1.55 -82.7 0 0 140.20 118.58
  C 139.49 123.32 137.96 126.60 140.01 131.56
  Q 147.30 149.12 154.87 168.50
  Q 155.77 170.82 156.14 173.24
  Q 156.23 173.77 156.72 174.00
  Q 158.35 174.77 159.52 173.25
  Q 169.23 160.61 179.18 151.12
  Q 181.71 148.71 185.75 146.76
  A 1.47 1.47 0.0 0 1 186.82 146.68
  C 189.11 147.37 191.10 147.08 193.01 145.54
  Z
  M 119.89 288.43
  Q 119.16 288.38 119.21 289.51
  Q 119.24 290.06 119.30 290.58
  Q 119.36 291.06 119.02 291.41
  Q 118.28 292.17 119.18 292.82
  Q 118.84 293.03 118.60 293.39
  Q 118.36 293.76 118.41 294.18
  C 119.12 299.75 118.47 305.35 118.49 310.96
  Q 118.57 335.49 118.52 355.78
  A 2.83 2.82 5.7 0 0 120.81 358.56
  L 249.56 383.50
  Q 251.53 384.63 254.76 384.08
  Q 260.34 383.12 263.67 382.16
  Q 269.34 382.39 274.71 380.26
  L 383.59 360.30
  Q 386.32 359.80 386.30 357.03
  Q 386.21 346.44 386.41 336.26
  Q 386.82 315.59 386.48 293.50
  Q 386.47 292.98 386.00 292.45
  Q 386.25 292.26 386.33 292.02
  Q 386.39 291.81 386.23 291.52
  Q 385.38 289.97 384.28 288.33
  Q 386.51 286.52 385.04 283.23
  Q 371.97 254.02 362.74 231.06
  C 357.76 218.69 352.63 207.48 347.37 195.58
  Q 345.21 190.72 345.17 187.66
  Q 345.12 183.61 345.95 178.79
  A 2.42 2.42 0.0 0 0 344.97 176.42
  Q 337.48 171.08 329.69 165.57
  C 325.92 162.89 322.02 157.58 318.61 154.22
  C 314.89 150.56 311.67 146.81 307.05 144.31
  Q 299.16 140.04 290.95 137.10
  C 278.99 132.82 266.63 127.62 255.35 122.79
  C 251.73 121.24 248.45 122.40 245.04 123.89
  Q 225.00 132.67 203.40 141.16
  C 199.20 142.80 193.37 145.49 190.63 148.56
  C 186.60 153.08 181.96 157.07 177.84 161.60
  Q 169.97 170.26 159.22 177.03
  A 1.55 1.55 0.0 0 0 158.59 177.78
  C 157.65 180.16 158.58 184.03 158.93 186.58
  Q 159.24 188.81 158.23 191.69
  Q 154.06 203.48 150.34 212.20
  C 146.40 221.42 143.08 230.46 139.21 239.61
  C 136.34 246.38 134.24 253.33 131.35 260.04
  Q 126.48 271.35 121.72 282.71
  Q 120.21 286.30 119.89 288.43
  Z"
/>
<path fill="#2f2f2e" d="
  M 237.10 120.63
  Q 234.83 122.04 232.53 122.37
  Q 234.75 120.81 237.10 120.63
  Z"
/>
<path fill="#2f2f2e" d="
  M 274.95 124.55
  Q 277.66 125.07 280.27 126.78
  L 277.31 126.13
  Q 276.85 126.03 276.60 125.62
  Q 276.21 124.97 274.95 124.55
  Z"
/>
<path fill="#2f2f2e" d="
  M 371.05 126.80
  Q 371.62 129.57 370.79 132.00
  Q 369.27 136.47 366.36 142.39
  Q 366.81 138.88 368.29 136.30
  Q 370.94 131.70 370.68 126.98
  L 371.05 126.80
  Z"
/>
<path fill="#2f2f2e" d="
  M 297.58 136.76
  Q 297.41 137.32 297.82 138.05
  Q 297.94 138.50 297.88 138.74
  A 0.30 0.30 0.0 0 1 297.36 138.86
  Q 296.91 138.33 296.24 138.13
  Q 294.57 137.64 296.13 136.85
  Q 296.58 136.62 296.98 136.27
  Q 297.29 136.00 297.55 136.31
  Q 297.68 136.46 297.58 136.76
  Z"
/>
<path fill="#060605" d="
  M 335.08 213.72
  A 1.78 1.77 54.7 0 0 335.47 211.41
  C 333.43 208.09 329.71 205.24 326.60 202.98
  C 320.12 198.27 309.09 196.75 302.16 201.52
  Q 291.50 208.85 280.47 216.41
  Q 278.04 218.07 275.37 218.48
  Q 266.51 219.82 257.01 222.81
  C 254.57 223.57 252.44 223.49 250.02 222.75
  Q 239.27 219.47 229.71 218.48
  Q 228.73 218.38 227.93 217.80
  Q 218.02 210.73 208.63 204.11
  Q 202.90 200.08 198.53 199.21
  C 186.50 196.81 178.99 203.25 172.13 211.81
  A 1.86 1.86 0.0 0 0 172.28 214.31
  Q 174.10 216.08 176.20 217.36
  Q 185.91 223.23 199.93 229.56
  Q 201.91 230.45 203.73 230.36
  C 210.38 230.05 215.89 228.80 221.79 226.64
  Q 222.96 226.21 222.29 227.26
  Q 219.59 231.49 216.62 234.65
  C 214.56 236.85 212.35 236.90 209.58 237.47
  Q 197.63 239.95 184.25 238.48
  Q 181.94 238.23 181.14 236.43
  C 178.85 231.24 176.77 226.52 173.76 221.62
  Q 169.01 213.90 165.17 205.81
  A 0.98 0.98 0.0 0 1 165.39 204.67
  Q 168.55 201.77 172.30 199.60
  Q 180.13 195.06 187.50 192.59
  A 1.85 1.85 0.0 0 0 188.70 190.35
  L 185.24 177.69
  A 0.61 0.61 0.0 0 1 186.07 176.97
  C 192.05 179.54 197.39 183.31 203.05 186.56
  Q 208.17 189.50 213.82 192.72
  Q 219.20 195.79 224.57 198.66
  Q 238.66 206.18 252.31 214.49
  A 1.93 1.91 -40.8 0 0 254.06 214.61
  C 258.30 212.82 261.87 209.98 265.85 207.72
  Q 280.59 199.38 294.89 191.45
  C 302.29 187.34 309.98 182.50 317.71 178.18
  Q 319.15 177.37 320.71 176.86
  A 0.51 0.50 87.5 0 1 321.36 177.46
  L 318.06 191.44
  Q 317.76 192.74 319.03 193.16
  Q 325.18 195.20 331.31 197.79
  C 335.27 199.47 338.25 202.57 341.51 205.19
  A 1.42 1.41 33.2 0 1 341.88 206.95
  Q 334.61 220.62 328.35 235.57
  C 327.88 236.70 327.00 237.62 325.78 237.87
  C 323.76 238.29 321.82 238.89 319.73 239.01
  Q 314.25 239.32 309.21 239.51
  Q 303.15 239.74 295.87 237.69
  Q 292.93 236.85 290.76 234.84
  Q 287.36 231.68 284.75 228.65
  Q 282.59 226.14 285.74 227.14
  Q 295.14 230.13 304.23 230.44
  Q 306.41 230.52 311.68 227.62
  Q 319.90 223.11 328.61 218.09
  Q 332.30 215.97 335.08 213.72
  Z"
/>
<path fill="#2f2f2e" d="
  M 365.66 220.98
  Q 367.06 223.45 368.89 227.81
  Q 376.28 245.42 383.98 263.71
  Q 385.79 268.03 387.69 272.39
  C 391.00 280.03 394.36 288.08 394.22 297.00
  Q 393.71 329.34 394.02 339.75
  Q 394.36 351.52 393.57 357.38
  Q 392.93 324.24 393.26 291.28
  Q 393.27 290.22 392.85 288.78
  C 392.51 287.64 392.51 286.54 392.04 285.46
  Q 388.94 278.25 386.11 270.70
  Q 384.56 266.55 382.11 261.27
  Q 379.95 256.60 378.13 251.79
  Q 376.84 248.36 371.42 236.34
  Q 368.63 230.13 365.66 220.98
  Z"
/>
<path fill="#2f2f2e" d="
  M 119.89 288.43
  Q 120.26 289.38 120.64 289.61
  Q 126.51 293.12 132.22 297.14
  Q 140.52 302.97 143.56 304.98
  Q 149.26 308.73 154.95 312.76
  C 160.17 316.45 165.63 319.28 171.18 322.20
  C 176.02 324.74 180.59 327.96 185.36 330.84
  C 192.20 334.96 198.46 339.79 205.11 343.83
  C 214.44 349.52 222.37 356.12 231.27 362.25
  C 238.67 367.33 245.16 372.87 252.30 378.08
  Q 253.96 379.30 255.82 377.61
  Q 264.46 369.77 275.12 362.72
  C 279.21 360.02 284.08 355.68 288.64 352.45
  Q 306.06 340.11 323.16 328.41
  C 330.70 323.25 338.50 319.19 345.93 314.09
  Q 364.91 301.03 384.28 288.33
  Q 385.38 289.97 386.23 291.52
  Q 386.39 291.81 386.33 292.02
  Q 386.25 292.26 386.00 292.45
  Q 384.56 292.50 383.34 293.60
  C 380.43 296.24 377.47 298.91 374.26 301.22
  C 367.39 306.18 361.20 312.19 354.33 317.46
  Q 336.20 331.37 318.70 345.60
  Q 315.72 348.02 312.86 350.47
  Q 304.00 358.07 293.60 362.86
  Q 287.09 365.86 267.50 374.45
  Q 263.69 376.13 260.78 378.52
  L 251.78 381.97
  Q 248.90 380.01 248.10 379.63
  C 238.92 375.27 227.90 371.23 217.94 366.50
  C 211.37 363.38 203.79 361.09 198.06 356.85
  Q 189.19 350.29 179.05 341.68
  Q 175.60 338.75 171.82 335.43
  Q 156.02 321.56 132.45 302.31
  Q 127.06 297.91 120.77 293.00
  Q 120.28 292.62 119.18 292.82
  Q 118.28 292.17 119.02 291.41
  Q 119.36 291.06 119.30 290.58
  Q 119.24 290.06 119.21 289.51
  Q 119.16 288.38 119.89 288.43
  Z"
/>
<path fill="#908c8d" d="
  M 260.78 378.52
  Q 259.92 379.95 260.64 380.61
  Q 261.88 381.75 263.73 382.00
  Q 263.70 382.08 263.67 382.16
  Q 260.34 383.12 254.76 384.08
  Q 251.53 384.63 249.56 383.50
  Q 251.12 382.72 251.78 381.97
  L 260.78 378.52
  Z"
/>
<path fill="#2f2f2e" d="
  M 274.71 380.26
  Q 269.34 382.39 263.67 382.16
  Q 263.70 382.08 263.73 382.00
  L 274.71 380.26
  Z"
/>
</svg>
